<svg id="레이어_1" data-name="레이어 1" xmlns="http://www.w3.org/2000/svg" viewBox="0 0 85.68 88.77"><defs><style>.cls-1{fill:#f5f5f5;}</style></defs><path class="cls-1" d="M19.24,23a2.46,2.46,0,0,0,1.25-.33,2.54,2.54,0,0,0,1-3.48h0a2.57,2.57,0,0,0-3.49-1,2.56,2.56,0,0,0-1,3.49A2.6,2.6,0,0,0,19.24,23Z"/><path class="cls-1" d="M25.75,19.39A2.59,2.59,0,0,0,27,19.07a2.54,2.54,0,0,0,1.21-1.55A2.49,2.49,0,0,0,28,15.58h0a2.57,2.57,0,1,0-2.24,3.81Z"/><path class="cls-1" d="M32.27,15.75a2.55,2.55,0,0,0,2.47-1.87,2.54,2.54,0,0,0-.24-1.94,2.57,2.57,0,0,0-4.71.57A2.53,2.53,0,0,0,30,14.45,2.6,2.6,0,0,0,32.27,15.75Z"/><path class="cls-1" d="M62.27,22.7a2.5,2.5,0,0,0,1.26.33,2.56,2.56,0,1,0-2.24-3.81h0a2.56,2.56,0,0,0,1,3.48Z"/><path class="cls-1" d="M55.76,19.07a2.6,2.6,0,0,0,3.5-1,2.57,2.57,0,1,0-4.72-.57A2.59,2.59,0,0,0,55.76,19.07Z"/><path class="cls-1" d="M49.24,15.43a2.6,2.6,0,0,0,3.5-1A2.54,2.54,0,0,0,53,12.51a2.57,2.57,0,0,0-4.72-.57A2.49,2.49,0,0,0,48,13.88,2.54,2.54,0,0,0,49.24,15.43Z"/><path class="cls-1" d="M73.22,56.27V31.44a5.29,5.29,0,0,0,2.92-4.74,5.33,5.33,0,0,0-10.66-.23L44.08,39.26a5.35,5.35,0,0,0-2.7-.74,5.21,5.21,0,0,0-2.74.78L17.27,26.83a5.2,5.2,0,0,0-.95-3.2A5.33,5.33,0,0,0,7.6,29.76,5.38,5.38,0,0,0,9.47,31.4V56.3a5.34,5.34,0,1,0,5.12.09V31.33l.12-.07L36.06,43.71a.76.76,0,0,0,0,.15,5.34,5.34,0,0,0,2.77,4.65v25a5.33,5.33,0,1,0,5.12,0v-25a5.35,5.35,0,0,0,2.78-4.65c0-.07,0-.14,0-.21L67.78,31.06l.32.21V56.44a5.33,5.33,0,1,0,5.12-.17Z"/><path class="cls-1" d="M41.38,14.84a5.3,5.3,0,1,0-5.3-5.29A5.3,5.3,0,0,0,41.38,14.84Zm0-8.41a3.12,3.12,0,1,1-3.12,3.12A3.12,3.12,0,0,1,41.38,6.43Z"/></svg>