<?xml version="1.0" encoding="utf-8"?>
<!-- Generator: Adobe Illustrator 24.1.2, SVG Export Plug-In . SVG Version: 6.00 Build 0)  -->
<svg version="1.1" id="Layer_1" xmlns="http://www.w3.org/2000/svg" xmlns:xlink="http://www.w3.org/1999/xlink" x="0px" y="0px"
	 viewBox="0 0 196.3 166.3" style="enable-background:new 0 0 196.3 166.3;" xml:space="preserve">
<style type="text/css">
	.st0{fill:#324685;}
	.st1{clip-path:url(#SVGID_2_);fill:#324685;}
	.st2{clip-path:url(#SVGID_2_);fill:none;stroke:#324685;stroke-width:2;stroke-miterlimit:10;}
	.st3{clip-path:url(#SVGID_2_);fill:none;stroke:#324685;stroke-width:5;stroke-miterlimit:10;}
</style>
<rect x="11.5" y="85.9" transform="matrix(0.7071 -0.7071 0.7071 0.7071 -59.3528 35.6091)" class="st0" width="3.5" height="7.2"/>
<rect x="2" y="76.3" transform="matrix(0.707 -0.7072 0.7072 0.707 -55.416 26.0985)" class="st0" width="3.5" height="7.2"/>
<rect x="0.2" y="87.7" transform="matrix(0.7071 -0.7071 0.7071 0.7071 -62.1403 28.8795)" class="st0" width="7.2" height="3.5"/>
<rect x="9.7" y="78.2" transform="matrix(0.7071 -0.7071 0.7071 0.7071 -52.623 32.8217)" class="st0" width="7.2" height="3.5"/>
<g>
	<defs>
		<rect id="SVGID_1_" width="196.3" height="166.3"/>
	</defs>
	<clipPath id="SVGID_2_">
		<use xlink:href="#SVGID_1_"  style="overflow:visible;"/>
	</clipPath>
	<path class="st1" d="M139.6,165.3l-20-18.6H47.8c-8.6,0-15.7-7-15.7-15.7V57.2c0-8.6,7-15.7,15.7-15.7H144c8.6,0,15.7,7,15.7,15.7
		V131c0,8.6-7,15.7-15.7,15.7l-1.7,0L139.6,165.3z M121.5,142l14.7,13.6l2-13.8l5.9,0.1c6,0,10.8-4.9,10.8-10.9V57.2
		c0-6-4.9-10.9-10.9-10.9H47.8c-6,0-10.9,4.9-10.9,10.9V131c0,6,4.9,10.9,10.9,10.9L121.5,142z"/>
	<path class="st1" d="M140,166.3l-20.6-19.1H47.8c-8.9,0-16.2-7.3-16.2-16.2V57.2c0-8.9,7.3-16.2,16.2-16.2H144
		c8.9,0,16.2,7.3,16.2,16.2V131c0,8.9-7.3,16.2-16.2,16.2l-1.3,0L140,166.3z M47.8,42c-8.4,0-15.2,6.8-15.2,15.2V131
		c0,8.4,6.8,15.2,15.2,15.2h72l0.1,0.1l19.3,18l2.6-18.1l2.2,0c8.4,0,15.2-6.8,15.2-15.2V57.2c0-8.4-6.8-15.2-15.2-15.2H47.8z
		 M136.5,156.6l-15.2-14.2l-73.5-0.1c-6.3,0-11.4-5.1-11.4-11.4V57.2c0-6.3,5.1-11.4,11.4-11.4H144c6.3,0,11.4,5.1,11.4,11.4V131
		c0,6.3-5.1,11.4-11.3,11.4l-5.5-0.1L136.5,156.6z M47.8,46.8c-5.7,0-10.4,4.7-10.4,10.4V131c0,5.7,4.7,10.4,10.4,10.4l73.9,0.1
		l14.1,13.1l1.9-13.3l6.4,0.1c5.7,0,10.3-4.7,10.3-10.4V57.2c0-5.7-4.7-10.4-10.4-10.4H47.8z"/>
	<polygon class="st2" points="123.1,82.9 129.1,88.9 129.7,88.3 123.7,82.3 	"/>
	<polygon class="st2" points="110.4,96.7 109.5,101.8 109.1,101.4 108.8,103.2 108.9,103.2 110.7,102.9 110.3,102.5 115.3,101.6 	
		"/>
	<path class="st2" d="M116.1,102.4l-7.9,1.4l0.8-4.6H79.6c-0.5,0-0.9-0.4-0.9-0.9c0-0.5,0.4-0.9,0.9-0.9h29.8l0.3-1.5l-0.7-0.7
		l10.4-10.4V68.1H71.4v54.8h47.9v-22.1l-2.4,2.4L116.1,102.4z M79.6,84.4h31.5c0.5,0,0.9,0.4,0.9,0.9c0,0.5-0.4,0.9-0.9,0.9H79.6
		c-0.5,0-0.9-0.4-0.9-0.9C78.7,84.8,79.1,84.4,79.6,84.4z M111.1,112H79.6c-0.5,0-0.9-0.4-0.9-0.9c0-0.5,0.4-0.9,0.9-0.9h31.5
		c0.5,0,0.9,0.4,0.9,0.9C112,111.6,111.6,112,111.1,112z"/>
	
		<rect x="111.9" y="88.6" transform="matrix(0.7071 -0.7071 0.7071 0.7071 -30.2729 111.6617)" class="st2" width="15.5" height="7.6"/>
	<path class="st2" d="M142.5,69.6c-0.8-0.8-1.7-1.3-2.6-1.3c-1.5,0-2.6,1.1-2.6,1.1c0,0,0,0,0,0L125.7,81l5.4,5.4L142.4,75
		c0,0,1.3-1.2,1.3-2.8C143.7,71.3,143.3,70.4,142.5,69.6C142.5,69.6,142.5,69.6,142.5,69.6z"/>
	<path class="st1" d="M79.6,86.3h31.5c0.5,0,0.9-0.4,0.9-0.9c0-0.5-0.4-0.9-0.9-0.9H79.6c-0.5,0-0.9,0.4-0.9,0.9
		C78.7,85.8,79.1,86.3,79.6,86.3"/>
	<path class="st2" d="M79.6,86.3h31.5c0.5,0,0.9-0.4,0.9-0.9c0-0.5-0.4-0.9-0.9-0.9H79.6c-0.5,0-0.9,0.4-0.9,0.9
		C78.7,85.8,79.1,86.3,79.6,86.3z"/>
	<path class="st1" d="M111.1,110.1H79.6c-0.5,0-0.9,0.4-0.9,0.9c0,0.5,0.4,0.9,0.9,0.9h31.5c0.5,0,0.9-0.4,0.9-0.9
		C112,110.6,111.6,110.1,111.1,110.1"/>
	<path class="st2" d="M111.1,110.1H79.6c-0.5,0-0.9,0.4-0.9,0.9c0,0.5,0.4,0.9,0.9,0.9h31.5c0.5,0,0.9-0.4,0.9-0.9
		C112,110.6,111.6,110.1,111.1,110.1z"/>
	<path class="st1" d="M143.9,68.4C143.8,68.3,143.8,68.3,143.9,68.4c-1.3-1.3-2.6-1.9-4.1-1.9c-2.2,0-3.8,1.6-3.9,1.7l-12.1,12.1
		c-0.2,0.2-0.3,0.4-0.3,0.7c0,0.1,0,0.2,0,0.2l-0.7,0.7l-0.3-0.3l-1.3,1.3V66.2H69.5v58.5h51.6V98.9l9.3-9.3l-0.3-0.3l0.7-0.7
		c0.1,0,0.2,0,0.2,0c0.2,0,0.5-0.1,0.7-0.3l12-12c0.1-0.1,1.8-1.8,1.9-4.1C145.6,70.8,145,69.5,143.9,68.4 M119.3,100.7v22.1H71.4
		V68.1h47.9v16.7l-10.4,10.4l0.7,0.7l-0.3,1.5H79.6c-0.5,0-0.9,0.4-0.9,0.9c0,0.5,0.4,0.9,0.9,0.9H109l-0.8,4.6l7.9-1.4l0.7,0.7
		L119.3,100.7l0.9-0.9L119.3,100.7z M110.7,102.9l-1.7,0.3l-0.1,0l0.3-1.9l0.4,0.4l0.9-5l4.9,4.9l-5,0.9L110.7,102.9z M116.9,100.5
		l-5.4-5.4l10.9-10.9l5.4,5.4L116.9,100.5z M129.1,88.9l-6-6l0.6-0.6l6,6L129.1,88.9z M142.4,75l-11.3,11.3l-5.4-5.4l11.5-11.5
		c0,0,0,0,0,0c0,0,1.1-1.1,2.6-1.1c0.9,0,1.8,0.4,2.6,1.3c0,0,0,0,0,0.1c0.8,0.8,1.2,1.7,1.2,2.6C143.7,73.7,142.4,75,142.4,75"/>
	<path class="st2" d="M143.9,68.4C143.8,68.3,143.8,68.3,143.9,68.4c-1.3-1.3-2.6-1.9-4.1-1.9c-2.2,0-3.8,1.6-3.9,1.7l-12.1,12.1
		c-0.2,0.2-0.3,0.4-0.3,0.7c0,0.1,0,0.2,0,0.2l-0.7,0.7l-0.3-0.3l-1.3,1.3V66.2H69.5v58.5h51.6V98.9l9.3-9.3l-0.3-0.3l0.7-0.7
		c0.1,0,0.2,0,0.2,0c0.2,0,0.5-0.1,0.7-0.3l12-12c0.1-0.1,1.8-1.8,1.9-4.1C145.6,70.8,145,69.5,143.9,68.4z M119.3,100.7v22.1H71.4
		V68.1h47.9v16.7l-10.4,10.4l0.7,0.7l-0.3,1.5H79.6c-0.5,0-0.9,0.4-0.9,0.9c0,0.5,0.4,0.9,0.9,0.9H109l-0.8,4.6l7.9-1.4l0.7,0.7
		L119.3,100.7l0.9-0.9L119.3,100.7z M110.7,102.9l-1.7,0.3l-0.1,0l0.3-1.9l0.4,0.4l0.9-5l4.9,4.9l-5,0.9L110.7,102.9z M116.9,100.5
		l-5.4-5.4l10.9-10.9l5.4,5.4L116.9,100.5z M129.1,88.9l-6-6l0.6-0.6l6,6L129.1,88.9z M142.4,75l-11.3,11.3l-5.4-5.4l11.5-11.5
		c0,0,0,0,0,0c0,0,1.1-1.1,2.6-1.1c0.9,0,1.8,0.4,2.6,1.3c0,0,0,0,0,0.1c0.8,0.8,1.2,1.7,1.2,2.6C143.7,73.7,142.4,75,142.4,75z"/>
	<path class="st1" d="M123.7,77.9c0.3,0.3,0.8,0.3,1.2,0l8.6-8.6c0.3-0.3,0.3-0.8,0-1.2l0,0c-0.3-0.3-0.8-0.3-1.2,0l-8.6,8.6
		C123.4,77,123.4,77.6,123.7,77.9L123.7,77.9z"/>
	<path class="st2" d="M123.7,77.9c0.3,0.3,0.8,0.3,1.2,0l8.6-8.6c0.3-0.3,0.3-0.8,0-1.2l0,0c-0.3-0.3-0.8-0.3-1.2,0l-8.6,8.6
		C123.4,77,123.4,77.6,123.7,77.9L123.7,77.9z"/>
	<line class="st3" x1="176.1" y1="24.7" x2="176.1" y2="37.8"/>
	<line class="st3" x1="176.1" y1="0" x2="176.1" y2="15.6"/>
	<line class="st3" x1="171.6" y1="20.2" x2="156" y2="20.2"/>
	<line class="st3" x1="196.3" y1="20.2" x2="180.7" y2="20.2"/>
	<rect x="134.3" y="28" class="st1" width="2.8" height="7.2"/>
	<rect x="134.3" y="14.3" class="st1" width="2.8" height="8.6"/>
	<rect x="124.5" y="24.1" class="st1" width="8.6" height="2.8"/>
	<rect x="138.2" y="24.1" class="st1" width="8.6" height="2.8"/>
	<rect x="177.1" y="64.5" class="st1" width="2.8" height="7.2"/>
	<rect x="177.1" y="50.9" class="st1" width="2.8" height="8.6"/>
	<rect x="167.3" y="60.7" class="st1" width="8.6" height="2.8"/>
	<rect x="181" y="60.7" class="st1" width="8.6" height="2.8"/>
</g>
</svg>
