<svg id="레이어_1" data-name="레이어 1" xmlns="http://www.w3.org/2000/svg" viewBox="0 0 118.35 118.35"><defs><style>.cls-1{fill:#324685;}</style></defs><path class="cls-1" d="M62.28,108.94a50.57,50.57,0,1,1,50.57-50.57A50.62,50.62,0,0,1,62.28,108.94Zm0-97.41a46.84,46.84,0,1,0,46.84,46.84A46.9,46.9,0,0,0,62.28,11.53Z"/><path class="cls-1" d="M81.54,85.59a4.73,4.73,0,0,1-3.37-1.39L50,56A12.67,12.67,0,0,1,34.75,38.9L36,36l7.65,7.65L46.22,41l-7.64-7.65,2.9-1.22a12.66,12.66,0,0,1,17.1,15.24l3.7,3.69L66,47.41A12.67,12.67,0,0,1,83.09,32.17L86,33.39,78.34,41,81,43.65,88.6,36l1.22,2.9A12.67,12.67,0,0,1,74.58,56l-3.7,3.69L86.77,75.6A4.7,4.7,0,0,1,88.17,79a4.78,4.78,0,0,1-1.39,3.37L84.91,84.2A4.73,4.73,0,0,1,81.54,85.59ZM51,51.06,81.17,81.2a.45.45,0,0,0,.74,0l1.87-1.87a.48.48,0,0,0,.15-.37.5.5,0,0,0-.15-.37L64.89,59.7l8.65-8.64,1.32.55A8.43,8.43,0,0,0,86.59,44L81,49.64,72.35,41,78,35.39a8.44,8.44,0,0,0-7.61,11.74l.55,1.32L62.28,57.1l-8.65-8.65.56-1.32a8.45,8.45,0,0,0-7.62-11.74L52.22,41l-8.6,8.6L38,44a8.43,8.43,0,0,0,11.74,7.61Z"/><path class="cls-1" d="M43,85.59a4.72,4.72,0,0,1-3.37-1.39l-1.87-1.87a4.77,4.77,0,0,1,0-6.73L53,60.44l8.6,8.6L46.39,84.2A4.71,4.71,0,0,1,43,85.59ZM53,66.43,40.79,78.59a.51.51,0,0,0-.16.37.5.5,0,0,0,.16.37l1.87,1.87a.45.45,0,0,0,.74,0L55.56,69Z"/></svg>