<svg id="레이어_1" data-name="레이어 1" xmlns="http://www.w3.org/2000/svg" viewBox="0 0 198.2 51.8"><defs><style>.cls-1{fill:#324685;}.cls-2{fill:#9d9d9e;}.cls-3{fill:#e4e043;}.cls-4{fill:#dd6a6f;}</style></defs><path class="cls-1" d="M75,33.4v-11l-5.4,6.4h-.2a.1.1,0,0,1-.1.1h-1a.1.1,0,0,1-.1-.1h-.4c-.1,0-.1,0-.1-.1h-.4l-5.4-6.4v11a1.4,1.4,0,0,1-1.5,1.5,1.5,1.5,0,0,1-1.5-1.5v-15a1.4,1.4,0,0,1,1-1.4,1.4,1.4,0,0,1,1.7.4l6.9,8.1,6.8-8.1a1.6,1.6,0,0,1,2.7,1v15a1.5,1.5,0,1,1-3,0Z" transform="translate(0)"/><path class="cls-1" d="M86.6,33.4V29.2l-6.2-10a1.6,1.6,0,0,1,.5-2.1,1.5,1.5,0,0,1,2,.5l5.2,8.3,5.1-8.3a1.6,1.6,0,0,1,2.1-.5,1.6,1.6,0,0,1,.5,2.1l-6.2,10v4.2a1.5,1.5,0,1,1-3,0Z" transform="translate(0)"/><path class="cls-1" d="M107.4,21.6a6.1,6.1,0,0,0,8.6,8.6,1.5,1.5,0,0,1,2.1,2.1,9.1,9.1,0,0,1-12.8-12.8,9.1,9.1,0,0,1,12.8,0,1.5,1.5,0,1,1-2.1,2.1A6.2,6.2,0,0,0,107.4,21.6Z" transform="translate(0)"/><path class="cls-1" d="M133.4,29.2l2.8,3.3a1.5,1.5,0,0,1-.2,2.1,1.4,1.4,0,0,1-.9.3,1.3,1.3,0,0,1-1.2-.5l-3.5-4.2h-6.7v3.1a1.4,1.4,0,0,1-1.5,1.5,1.5,1.5,0,0,1-1.5-1.5v-15a1.5,1.5,0,0,1,1.5-1.5h7.7a6.6,6.6,0,0,1,3.5,12.3Zm.2-5.6a3.7,3.7,0,0,0-3.7-3.7h-6.2v7.4h6.2A3.8,3.8,0,0,0,133.6,23.6Z" transform="translate(0)"/><path class="cls-1" d="M147.4,16.9a9,9,0,1,1-9,9A9,9,0,0,1,147.4,16.9Zm-6,9a6,6,0,1,0,6-6A6,6,0,0,0,141.4,25.9Z" transform="translate(0)"/><path class="cls-1" d="M198.2,25.9a9,9,0,0,1-9,9h-5.3a1.5,1.5,0,0,1-1.5-1.5v-15a1.5,1.5,0,0,1,1.5-1.5h5.3A9,9,0,0,1,198.2,25.9Zm-3,0a6,6,0,0,0-6-6h-3.8v12h3.8A6,6,0,0,0,195.2,25.9Z" transform="translate(0)"/><path class="cls-1" d="M175.4,35a1.4,1.4,0,0,1-1.3-.8l-5.3-9.4-5,9.4a1.4,1.4,0,0,1-1.5.8,1.6,1.6,0,0,1-1.3-1.1l-3.7-15.2a1.5,1.5,0,0,1,2.9-.7L163,29.3l4.5-8.4a1.3,1.3,0,0,1,1.3-.8h0a1.6,1.6,0,0,1,1.3.8l4.7,8.4L177.4,18a1.3,1.3,0,0,1,1.7-1.1,1.5,1.5,0,0,1,1.2,1.8l-3.4,15.1a1.8,1.8,0,0,1-1.3,1.2Z" transform="translate(0)"/><path class="cls-2" d="M24.4,45.3V28.5l-.6.3a2.8,2.8,0,0,1-2.2,0l-.5-.3V45.3a3.4,3.4,0,0,0-1.9,3,3.5,3.5,0,0,0,3.5,3.5,3.4,3.4,0,0,0,3.5-3.5A3.5,3.5,0,0,0,24.4,45.3Z" transform="translate(0)"/><path class="cls-2" d="M9.7,9.8a1.6,1.6,0,0,0-2.3-.6,1.4,1.4,0,0,0-.8,1,1.7,1.7,0,0,0,.2,1.2,1.6,1.6,0,0,0,1.4.9l.9-.2a2,2,0,0,0,.8-1,1.9,1.9,0,0,0-.2-1.3Z" transform="translate(0)"/><path class="cls-2" d="M14,7.4a1.7,1.7,0,0,0-2.3-.6,1.6,1.6,0,0,0-.8,1A2,2,0,0,0,11,9.1a1.8,1.8,0,0,0,1.5.8l.8-.2a1.6,1.6,0,0,0,.8-1A2,2,0,0,0,14,7.4Z" transform="translate(0)"/><path class="cls-2" d="M15.9,4.4a2.7,2.7,0,0,0-.8,1,2,2,0,0,0,.2,1.3,1.8,1.8,0,0,0,1.5.8,1.3,1.3,0,0,0,.8-.2,1.6,1.6,0,0,0,.8-1A1.5,1.5,0,0,0,18.2,5,1.6,1.6,0,0,0,15.9,4.4Z" transform="translate(0)"/><path class="cls-2" d="M38.8,10.2a1.4,1.4,0,0,0-.8-1,1.5,1.5,0,0,0-2.2.6,1.5,1.5,0,0,0-.2,1.3,1.6,1.6,0,0,0,.8,1l.8.2a1.6,1.6,0,0,0,1.5-.9A1.3,1.3,0,0,0,38.8,10.2Z" transform="translate(0)"/><path class="cls-2" d="M33.8,6.8a1.6,1.6,0,0,0-2.3.6,2,2,0,0,0-.2,1.3,2,2,0,0,0,.8,1l.9.2a1.7,1.7,0,0,0,1.4-.8,2,2,0,0,0,.2-1.3A1.6,1.6,0,0,0,33.8,6.8Z" transform="translate(0)"/><path class="cls-2" d="M29.5,4.4a1.7,1.7,0,0,0-2.3.6,2,2,0,0,0-.1,1.3,1.6,1.6,0,0,0,.8,1,1.1,1.1,0,0,0,.8.2,1.8,1.8,0,0,0,1.5-.8,2,2,0,0,0,.1-1.3A1.6,1.6,0,0,0,29.5,4.4Z" transform="translate(0)"/><path class="cls-1" d="M43.6,34V17.8a3.6,3.6,0,0,0,1.9-3.1,3.5,3.5,0,0,0-7-.2l-14,8.4a3.5,3.5,0,0,0-1.8-.5,4.1,4.1,0,0,0-1.8.5L7,14.8a3.1,3.1,0,0,0-.7-2.1,3.4,3.4,0,0,0-2.2-1.5,3.9,3.9,0,0,0-2.6.6A3.3,3.3,0,0,0,.1,14.1a3.4,3.4,0,0,0,.5,2.6,4.7,4.7,0,0,0,1.3,1.1V34A3.4,3.4,0,0,0,0,37.1a3.5,3.5,0,0,0,3.5,3.5,3.5,3.5,0,0,0,1.7-6.5V17.7h.1l13.9,8.1h0a3.6,3.6,0,0,0,5,3.2,3.6,3.6,0,0,0,2-3.2h0L40,17.5l.2.2V34.1a3.5,3.5,0,0,0-1.7,3A3.4,3.4,0,0,0,42,40.6a3.5,3.5,0,0,0,3.5-3.5A3.6,3.6,0,0,0,43.6,34ZM3.5,38.5a1.4,1.4,0,0,1-1.4-1.4v-.3h0v-.2h0c0-.1.1-.1.1-.2h.1a.2.2,0,0,1,.2-.2,1.1,1.1,0,0,1,.9-.4,1.8,1.8,0,0,1,1,.4c0,.1.1.1.2.2h0a.3.3,0,0,0,.1.2h0c0,.1,0,.1.1.2h0v.2A1.4,1.4,0,0,1,3.5,38.5Zm38.5,0a1.4,1.4,0,0,1-1.4-1.4v-.4a.1.1,0,0,1,.1-.1.5.5,0,0,1,.2-.4,1.6,1.6,0,0,1,1.1-.5,1.4,1.4,0,0,1,1.1.6h0a.3.3,0,0,1,.1.2h.1v.3h.1v.3A1.4,1.4,0,0,1,42,38.5Z" transform="translate(0)"/><path class="cls-3" d="M5.5,36.7h0a.4.4,0,0,1-.1-.3h0c-.1-.1-.2-.2-.2-.3h0c-.1-.2-.2-.2-.3-.3a2,2,0,0,0-1.4-.6,2.4,2.4,0,0,0-1.4.5c-.1.1-.2.2-.2.3h0l-.3.3h0c0,.1-.1.2-.1.3h0c0,.1-.1.3-.1.4a2.1,2.1,0,0,0,2.1,2.1,2,2,0,0,0,2-2.1Z" transform="translate(0)"/><path class="cls-4" d="M44,36.7h-.1a.4.4,0,0,0-.1-.3h0l-.2-.3h0q-.1-.3-.3-.3l-.4-.3h0l-.9-.2a2,2,0,0,0-1.5.6,1.6,1.6,0,0,0-.4.7H40v.3a.8.8,0,0,0-.1.4A2.1,2.1,0,0,0,42,39.2a2,2,0,0,0,2-2.1Zm-.6-.7Z" transform="translate(0)"/><path class="cls-2" d="M22.7,0a3.5,3.5,0,0,0-3.4,3.5,3.4,3.4,0,0,0,3.4,3.4,3.5,3.5,0,0,0,3.5-3.4A3.5,3.5,0,0,0,22.7,0Zm0,5.5a2,2,0,0,1-2-2,2,2,0,0,1,2-2.1,2.1,2.1,0,0,1,2.1,2.1A2,2,0,0,1,22.7,5.5Z" transform="translate(0)"/></svg>