<svg id="레이어_1" data-name="레이어 1" xmlns="http://www.w3.org/2000/svg" viewBox="0 0 388.9 100"><defs><style>.cls-1{fill:#3c46ff;}.cls-2{fill:none;}</style></defs><polyline class="cls-1" points="1.55 86.35 13.83 86.35 13.83 13.65 1.55 13.65"/><rect class="cls-1" x="175.29" y="13.65" width="12.28" height="72.69"/><rect class="cls-1" x="286.73" y="13.65" width="12.28" height="72.69"/><polygon class="cls-1" points="112.99 86.34 125.28 86.34 125.28 56.88 160.57 56.88 160.57 45.11 125.28 45.11 125.28 24.92 162.4 24.92 162.4 13.65 112.99 13.65 112.99 86.34"/><polygon class="cls-1" points="257.4 60.49 207.18 13.65 204.51 13.65 204.51 86.34 216.79 86.34 216.79 39.51 267.01 86.34 269.69 86.34 269.69 13.65 257.4 13.65 257.4 60.49"/><polygon class="cls-1" points="83.67 60.49 33.45 13.65 30.77 13.65 30.77 86.34 43.06 86.34 43.06 39.51 93.28 86.34 95.95 86.34 95.95 13.65 83.67 13.65 83.67 60.49"/><path class="cls-1" d="M348.38,50h-2.67l21,36.35h20.66L376.47,76.2a38,38,0,1,0-19.73,11.39l-6.43-12.1c-.64.05-1.28.08-1.93.08A25.69,25.69,0,1,1,367,67.4Z"/><polyline class="cls-2" points="1.55 88.5 387.35 88.5 387.35 11.5 1.55 11.5"/></svg>