<?xml version="1.0" encoding="utf-8"?>
<!-- Generator: Adobe Illustrator 24.1.2, SVG Export Plug-In . SVG Version: 6.00 Build 0)  -->
<svg version="1.1" id="레이어_1" xmlns="http://www.w3.org/2000/svg" xmlns:xlink="http://www.w3.org/1999/xlink" x="0px"
	 y="0px" viewBox="0 0 115.7 106.2" style="enable-background:new 0 0 115.7 106.2;" xml:space="preserve">
<style type="text/css">
	.st0{clip-path:url(#SVGID_2_);fill:#FFFFFF;}
	.st1{clip-path:url(#SVGID_4_);fill:#FFFFFF;}
	.st2{clip-path:url(#SVGID_6_);fill:#FFFFFF;}
	.st3{clip-path:url(#SVGID_8_);fill:#FFFFFF;}
	.st4{clip-path:url(#SVGID_10_);fill:#FFFFFF;}
	.st5{clip-path:url(#SVGID_12_);fill:#FFFFFF;}
	.st6{clip-path:url(#SVGID_14_);fill:#FFFFFF;}
	.st7{clip-path:url(#SVGID_16_);fill:#FFFFFF;}
	.st8{clip-path:url(#SVGID_18_);fill:#FFFFFF;}
	.st9{clip-path:url(#SVGID_20_);fill:#FFFFFF;}
	.st10{clip-path:url(#SVGID_22_);fill:#FFFFFF;}
	.st11{clip-path:url(#SVGID_24_);fill:#FFFFFF;}
	.st12{clip-path:url(#SVGID_26_);fill:#FFFFFF;}
	.st13{clip-path:url(#SVGID_28_);fill:#FFFFFF;}
	.st14{clip-path:url(#SVGID_30_);fill:#FFFFFF;}
</style>
<g>
	<g>
		<defs>
			<rect id="SVGID_1_" x="30.5" y="9" width="55" height="62.7"/>
		</defs>
		<clipPath id="SVGID_2_">
			<use xlink:href="#SVGID_1_"  style="overflow:visible;"/>
		</clipPath>
		<path class="st0" d="M40.5,23.8c0.3,0,0.7-0.1,1-0.3c0.5-0.3,0.8-0.7,1-1.2c0.1-0.5,0.1-1.1-0.2-1.5c-0.5-1-1.8-1.3-2.8-0.8
			c-0.5,0.3-0.8,0.7-1,1.2c-0.1,0.5-0.1,1.1,0.2,1.5C39.1,23.4,39.8,23.8,40.5,23.8"/>
	</g>
	<g>
		<defs>
			<rect id="SVGID_3_" x="30.5" y="9" width="55" height="62.7"/>
		</defs>
		<clipPath id="SVGID_4_">
			<use xlink:href="#SVGID_3_"  style="overflow:visible;"/>
		</clipPath>
		<path class="st1" d="M45.6,20.9c0.3,0,0.7-0.1,1-0.3c0.5-0.3,0.8-0.7,1-1.2c0.1-0.5,0.1-1.1-0.2-1.5c-0.5-1-1.8-1.3-2.8-0.8
			c-0.5,0.3-0.8,0.7-1,1.2c-0.1,0.5-0.1,1.1,0.2,1.5C44.2,20.6,44.9,20.9,45.6,20.9"/>
	</g>
	<g>
		<defs>
			<rect id="SVGID_5_" x="30.5" y="9" width="55" height="62.7"/>
		</defs>
		<clipPath id="SVGID_6_">
			<use xlink:href="#SVGID_5_"  style="overflow:visible;"/>
		</clipPath>
		<path class="st2" d="M50.8,18.1c0.3,0,0.7-0.1,1-0.3c0.5-0.3,0.8-0.7,1-1.2c0.1-0.5,0.1-1.1-0.2-1.5c-0.5-1-1.8-1.3-2.8-0.8
			c-0.5,0.3-0.8,0.7-1,1.2C48.7,16,48.7,16.6,49,17C49.4,17.7,50.1,18.1,50.8,18.1"/>
	</g>
	<g>
		<defs>
			<rect id="SVGID_7_" x="30.5" y="9" width="55" height="62.7"/>
		</defs>
		<clipPath id="SVGID_8_">
			<use xlink:href="#SVGID_7_"  style="overflow:visible;"/>
		</clipPath>
		<path class="st3" d="M74.5,23.6c0.3,0.2,0.7,0.3,1,0.3c0.7,0,1.4-0.4,1.8-1c0.3-0.5,0.3-1,0.2-1.5c-0.1-0.5-0.5-1-1-1.2
			c-1-0.5-2.2-0.2-2.8,0.8c-0.3,0.5-0.3,1-0.2,1.5C73.7,22.9,74.1,23.3,74.5,23.6"/>
	</g>
	<g>
		<defs>
			<rect id="SVGID_9_" x="30.5" y="9" width="55" height="62.7"/>
		</defs>
		<clipPath id="SVGID_10_">
			<use xlink:href="#SVGID_9_"  style="overflow:visible;"/>
		</clipPath>
		<path class="st4" d="M69.4,20.7c0.3,0.2,0.7,0.3,1,0.3c0.7,0,1.4-0.4,1.8-1c0.3-0.5,0.3-1,0.2-1.5c-0.1-0.5-0.5-1-1-1.2
			c-1-0.5-2.2-0.2-2.8,0.8c-0.3,0.5-0.3,1-0.2,1.5C68.6,20,68.9,20.4,69.4,20.7"/>
	</g>
	<g>
		<defs>
			<rect id="SVGID_11_" x="30.5" y="9" width="55" height="62.7"/>
		</defs>
		<clipPath id="SVGID_12_">
			<use xlink:href="#SVGID_11_"  style="overflow:visible;"/>
		</clipPath>
		<path class="st5" d="M64.2,17.8c0.3,0.2,0.7,0.3,1,0.3c0.7,0,1.4-0.4,1.8-1c0.3-0.5,0.3-1,0.2-1.5c-0.1-0.5-0.5-1-1-1.2
			c-1-0.5-2.2-0.2-2.8,0.8c-0.3,0.5-0.3,1-0.2,1.5C63.4,17.1,63.7,17.5,64.2,17.8"/>
	</g>
	<g>
		<defs>
			<rect id="SVGID_13_" x="30.5" y="9" width="55" height="62.7"/>
		</defs>
		<clipPath id="SVGID_14_">
			<use xlink:href="#SVGID_13_"  style="overflow:visible;"/>
		</clipPath>
		<path class="st6" d="M83.2,50.1V30.5c1.4-0.7,2.3-2.2,2.3-3.8c0-2.3-1.9-4.2-4.2-4.2c-2.3,0-4.1,1.8-4.2,4l-17,10.2
			c-0.6-0.4-1.4-0.6-2.1-0.6c-0.8,0-1.5,0.2-2.2,0.6l-16.9-9.9c0-0.9-0.2-1.8-0.8-2.5c-0.6-0.9-1.6-1.5-2.7-1.7
			c-1.1-0.2-2.2,0.1-3.2,0.7c-0.9,0.6-1.5,1.6-1.7,2.7s0.1,2.2,0.7,3.2c0.4,0.5,0.9,1,1.5,1.3v19.7c-1.4,0.7-2.2,2.2-2.2,3.7
			c0,2.3,1.9,4.2,4.2,4.2s4.2-1.9,4.2-4.2c0-1.5-0.8-2.9-2.1-3.7V30.4c0,0,0.1,0,0.1-0.1l16.9,9.8v0.1c0,1.5,0.9,2.9,2.2,3.7v19.8
			c-1.3,0.7-2.2,2.2-2.2,3.7c0,2.3,1.9,4.2,4.2,4.2s4.2-1.9,4.2-4.2c0-1.5-0.9-3-2.2-3.7V44c1.3-0.7,2.2-2.1,2.2-3.7
			c0-0.1,0-0.1,0-0.2l16.7-10c0.1,0.1,0.2,0.1,0.3,0.2v19.9c-1.3,0.8-2.1,2.1-2.1,3.6c0,2.3,1.9,4.2,4.2,4.2c2.3,0,4.2-1.9,4.2-4.2
			C85.5,52.3,84.6,50.8,83.2,50.1"/>
	</g>
	<g>
		<defs>
			<rect id="SVGID_15_" x="30.5" y="9" width="55" height="62.7"/>
		</defs>
		<clipPath id="SVGID_16_">
			<use xlink:href="#SVGID_15_"  style="overflow:visible;"/>
		</clipPath>
		<path class="st7" d="M58,17.3c2.3,0,4.2-1.9,4.2-4.2S60.3,9,58,9s-4.2,1.9-4.2,4.2S55.7,17.3,58,17.3 M58,10.7
			c1.4,0,2.5,1.1,2.5,2.5s-1.1,2.5-2.5,2.5s-2.5-1.1-2.5-2.5S56.6,10.7,58,10.7"/>
	</g>
</g>
<g>
	<g>
		<defs>
			<rect id="SVGID_17_" y="80.4" width="116" height="15.1"/>
		</defs>
		<clipPath id="SVGID_18_">
			<use xlink:href="#SVGID_17_"  style="overflow:visible;"/>
		</clipPath>
		<path class="st8" d="M13.4,94.3v-9.2l-4.5,5.3c0,0,0,0-0.1,0.1c0,0,0,0-0.1,0.1l0,0l-0.1,0.1c0,0-0.1,0-0.1,0.1c0,0-0.1,0-0.1,0.1
			H8.3H8.2H8.1H8H7.9H7.8H7.7H7.6c0,0-0.1,0-0.1-0.1c0,0-0.1,0-0.1-0.1c0,0-0.1,0-0.1-0.1l0,0c0,0,0,0-0.1-0.1c0,0,0,0-0.1-0.1
			l-4.5-5.3v9.2c0,0.7-0.6,1.2-1.2,1.2c-0.7,0-1.2-0.6-1.2-1.2V81.7c0-0.5,0.3-1,0.8-1.2s1,0,1.4,0.4l5.7,6.7l5.7-6.7
			c0.3-0.4,0.9-0.5,1.4-0.4c0.5,0.2,0.8,0.6,0.8,1.2v12.5c0,0.7-0.6,1.2-1.2,1.2C13.9,95.5,13.4,94.9,13.4,94.3L13.4,94.3z"/>
	</g>
	<g>
		<defs>
			<rect id="SVGID_19_" y="80.4" width="116" height="15.1"/>
		</defs>
		<clipPath id="SVGID_20_">
			<use xlink:href="#SVGID_19_"  style="overflow:visible;"/>
		</clipPath>
		<path class="st9" d="M23,94.3v-3.5l-5.2-8.4c-0.4-0.6-0.2-1.4,0.4-1.7c0.6-0.4,1.4-0.2,1.7,0.4l4.3,6.9l4.3-6.9
			c0.4-0.6,1.1-0.8,1.7-0.4s0.8,1.1,0.4,1.7l-5.2,8.4v3.5c0,0.7-0.6,1.2-1.2,1.2S23,94.9,23,94.3"/>
	</g>
	<g>
		<defs>
			<rect id="SVGID_21_" y="80.4" width="116" height="15.1"/>
		</defs>
		<clipPath id="SVGID_22_">
			<use xlink:href="#SVGID_21_"  style="overflow:visible;"/>
		</clipPath>
		<path class="st10" d="M40.4,84.4c-2,2-2,5.1,0,7.1s5.1,2,7.1,0c0.5-0.5,1.3-0.5,1.8,0s0.5,1.3,0,1.8c-1.4,1.4-3.3,2.2-5.3,2.2
			s-3.9-0.8-5.3-2.2c-1.4-1.4-2.2-3.3-2.2-5.3s0.8-3.9,2.2-5.3c2.9-2.9,7.7-2.9,10.6,0c0.5,0.5,0.5,1.3,0,1.8s-1.3,0.5-1.8,0
			C45.5,82.5,42.4,82.5,40.4,84.4"/>
	</g>
	<g>
		<defs>
			<rect id="SVGID_23_" y="80.4" width="116" height="15.1"/>
		</defs>
		<clipPath id="SVGID_24_">
			<use xlink:href="#SVGID_23_"  style="overflow:visible;"/>
		</clipPath>
		<path class="st11" d="M62.1,90.8l2.3,2.7c0.4,0.5,0.4,1.3-0.1,1.8c-0.2,0.2-0.5,0.3-0.8,0.3c-0.4,0-0.7-0.1-1-0.4l-3-3.5
			c-0.1,0-0.3,0-0.4,0H54v2.6c0,0.7-0.6,1.2-1.2,1.2c-0.7,0-1.2-0.6-1.2-1.2V81.7c0-0.7,0.6-1.2,1.2-1.2h6.4c3.1,0,5.6,2.5,5.6,5.6
			C64.7,88,63.6,89.8,62.1,90.8 M62.2,86c0-1.7-1.4-3.1-3.1-3.1H54v6.2h5.1C60.8,89.1,62.2,87.7,62.2,86"/>
	</g>
	<g>
		<defs>
			<rect id="SVGID_25_" y="80.4" width="116" height="15.1"/>
		</defs>
		<clipPath id="SVGID_26_">
			<use xlink:href="#SVGID_25_"  style="overflow:visible;"/>
		</clipPath>
		<path class="st12" d="M73.7,80.5c4.1,0,7.5,3.4,7.5,7.5s-3.4,7.5-7.5,7.5s-7.5-3.4-7.5-7.5C66.1,83.8,69.5,80.5,73.7,80.5
			 M68.6,88c0,2.8,2.3,5,5,5s5-2.3,5-5c0-2.8-2.3-5-5-5S68.6,85.2,68.6,88"/>
	</g>
	<g>
		<defs>
			<rect id="SVGID_27_" y="80.4" width="116" height="15.1"/>
		</defs>
		<clipPath id="SVGID_28_">
			<use xlink:href="#SVGID_27_"  style="overflow:visible;"/>
		</clipPath>
		<path class="st13" d="M116,88c0,4.1-3.4,7.5-7.5,7.5l0,0h-4.4c-0.7,0-1.2-0.6-1.2-1.2V81.7c0-0.7,0.6-1.2,1.2-1.2h4.4
			C112.6,80.5,116,83.8,116,88 M113.5,88c0-2.8-2.3-5-5-5h-3.2v10h3.2C111.3,93,113.5,90.8,113.5,88"/>
	</g>
	<g>
		<defs>
			<rect id="SVGID_29_" y="80.4" width="116" height="15.1"/>
		</defs>
		<clipPath id="SVGID_30_">
			<use xlink:href="#SVGID_29_"  style="overflow:visible;"/>
		</clipPath>
		<path class="st14" d="M97,95.6c-0.4,0-0.9-0.2-1.1-0.6l-4.4-8l-4.2,7.9c-0.2,0.5-0.7,0.7-1.3,0.7c-0.5-0.1-0.9-0.4-1.1-0.9
			l-3-12.7c-0.2-0.7,0.2-1.3,0.9-1.5c0.7-0.2,1.3,0.2,1.5,0.9l2.3,9.5l3.7-7c0.2-0.4,0.6-0.7,1.1-0.7l0,0c0.5,0,0.9,0.2,1.1,0.6
			l3.9,7l2.1-9.4c0.2-0.7,0.8-1.1,1.5-0.9s1.1,0.8,0.9,1.5L98,94.6C97.9,95.1,97.5,95.5,97,95.6C97.1,95.6,97,95.6,97,95.6"/>
	</g>
</g>
</svg>
