<svg id="레이어_1" data-name="레이어 1" xmlns="http://www.w3.org/2000/svg" viewBox="0 0 127.39 111.74"><defs><style>.cls-1{fill:#324685;}.cls-2{fill:#e4e043;}.cls-3{fill:#dd6a6f;}.cls-4,.cls-5{fill:none;stroke-miterlimit:10;stroke-width:5px;}.cls-4{stroke:#9d9d9e;}.cls-5{stroke:#324685;}.cls-6{fill:#9d9d9e;}</style></defs><path class="cls-1" d="M19.19,107.46V98.33l-4.48,5.25-.07.07a.46.46,0,0,1-.07.07s0,0,0,0a.28.28,0,0,1-.11.08l-.09.06-.12,0-.11,0L14,104l-.11,0h-.24l-.12,0-.12,0-.11,0-.11,0a.33.33,0,0,1-.1-.06.38.38,0,0,1-.11-.08h0a.46.46,0,0,1-.07-.07s-.05,0-.07-.07L8.34,98.33v9.13a1.25,1.25,0,1,1-2.49,0V95a1.25,1.25,0,0,1,2.2-.8l5.72,6.7,5.71-6.7a1.25,1.25,0,0,1,2.2.8v12.51a1.25,1.25,0,1,1-2.49,0Z"/><path class="cls-1" d="M28.82,107.46V104l-5.15-8.34a1.25,1.25,0,0,1,2.12-1.31l4.28,6.92,4.27-6.92a1.25,1.25,0,0,1,2.12,1.31L31.31,104v3.51a1.25,1.25,0,0,1-2.49,0Z"/><path class="cls-1" d="M46.15,97.67a5,5,0,1,0,7.08,7.08,1.24,1.24,0,0,1,1.76,0,1.26,1.26,0,0,1,0,1.76,7.5,7.5,0,1,1,0-10.6,1.24,1.24,0,0,1-1.76,1.76A5,5,0,0,0,46.15,97.67Z"/><path class="cls-1" d="M67.74,104,70,106.66a1.24,1.24,0,0,1-.14,1.76,1.26,1.26,0,0,1-1.75-.14l-3-3.46-.42,0H59.66v2.63a1.25,1.25,0,0,1-2.49,0V95a1.25,1.25,0,0,1,1.25-1.24h6.35a5.56,5.56,0,0,1,3,10.26Zm.1-4.7a3.08,3.08,0,0,0-3.07-3.07H59.66v6.15h5.11A3.08,3.08,0,0,0,67.84,99.27Z"/><path class="cls-1" d="M79.32,93.71a7.5,7.5,0,1,1-7.5,7.5A7.5,7.5,0,0,1,79.32,93.71Zm-5,7.5a5,5,0,1,0,5-5A5,5,0,0,0,74.31,101.21Z"/><path class="cls-1" d="M121.54,101.21a7.51,7.51,0,0,1-7.5,7.5h-4.41a1.24,1.24,0,0,1-1.25-1.24V95a1.25,1.25,0,0,1,1.25-1.24H114A7.5,7.5,0,0,1,121.54,101.21Zm-2.49,0a5,5,0,0,0-5-5h-3.17v10H114A5,5,0,0,0,119.05,101.21Z"/><path class="cls-1" d="M102.57,108.77a1.24,1.24,0,0,1-1.08-.64l-4.37-7.86L93,108.1a1.24,1.24,0,0,1-1.25.66,1.27,1.27,0,0,1-1.06-.94l-3.11-12.6a1.24,1.24,0,0,1,.91-1.51,1.26,1.26,0,0,1,1.51.91l2.33,9.43,3.69-7a1.22,1.22,0,0,1,1.09-.66h0a1.25,1.25,0,0,1,1.09.63l3.9,7,2.13-9.42a1.23,1.23,0,0,1,1.48-.94,1.25,1.25,0,0,1,1,1.49l-2.85,12.6a1.24,1.24,0,0,1-1,1Z"/><path class="cls-2" d="M37.35,58.67l0-.1v0a2.74,2.74,0,0,0-.15-.46l0-.07a4,4,0,0,0-.26-.47l0,0a3,3,0,0,0-.35-.42,3.14,3.14,0,0,0-4.7.33l0,0a3.57,3.57,0,0,0-.31.52l0,0a2.41,2.41,0,0,0-.18.52v0a.29.29,0,0,0,0,.09,3.07,3.07,0,0,0-.08.67,3.14,3.14,0,0,0,6.27,0A3.39,3.39,0,0,0,37.35,58.67Z"/><path class="cls-3" d="M96.17,58.63a.23.23,0,0,0,0-.11,0,0,0,0,0,0,0A2.51,2.51,0,0,0,96,58a.25.25,0,0,0,0-.07v0a2.69,2.69,0,0,0-.32-.5l0,0a4.09,4.09,0,0,0-.46-.47l-.53-.43v.08a3,3,0,0,0-1.45-.37,3.2,3.2,0,0,0-2.91,2l0,.1v0c0,.13-.09.27-.13.43a3.13,3.13,0,1,0,6.21.61A2.63,2.63,0,0,0,96.17,58.63Z"/><line class="cls-4" x1="63.7" y1="42.15" x2="63.7" y2="76.74"/><polyline class="cls-5" points="34.28 59.44 34.28 24.85 63.7 42.15 93.12 24.85 93.12 59.44"/><circle class="cls-6" cx="63.7" cy="76.29" r="5.5"/><circle class="cls-1" cx="63.7" cy="42.15" r="5.5"/><circle class="cls-1" cx="34.28" cy="25.15" r="5.5"/><circle class="cls-1" cx="93.12" cy="25.15" r="5.5"/><circle class="cls-1" cx="34.28" cy="59.31" r="5.5"/><circle class="cls-2" cx="34.28" cy="59.31" r="3"/><circle class="cls-1" cx="93.12" cy="59.31" r="5.5"/><circle class="cls-3" cx="93.12" cy="59.31" r="3"/><path class="cls-6" d="M63.7,2.73a5.5,5.5,0,1,0,5.5,5.5A5.5,5.5,0,0,0,63.7,2.73Zm0,8.5a3,3,0,1,1,3-3A3,3,0,0,1,63.7,11.23Z"/><circle class="cls-6" cx="72.84" cy="11.5" r="2.5"/><circle class="cls-6" cx="79.33" cy="15.12" r="2.5"/><circle class="cls-6" cx="85.81" cy="18.75" r="2.5"/><circle class="cls-6" cx="54.56" cy="11.5" r="2.5"/><circle class="cls-6" cx="48.07" cy="15.12" r="2.5"/><circle class="cls-6" cx="41.58" cy="18.75" r="2.5"/></svg>