<svg id="레이어_1" data-name="레이어 1" xmlns="http://www.w3.org/2000/svg" viewBox="0 0 143.19 131.78"><defs><style>.cls-1{fill:#fff;}.cls-2{fill:#fff;}.cls-3{fill:#fff;}.cls-4{fill:#fff;}</style></defs><path class="cls-1" d="M16.5,130.17v-11.3L11,125.36a.76.76,0,0,1-.09.09l-.09.09h0l-.14.1-.12.07-.14.07-.14,0-.14,0-.15,0H9.65l-.15,0-.14,0-.14,0a.61.61,0,0,1-.14-.07L9,125.65l-.14-.1h0l-.08-.09a.76.76,0,0,1-.09-.09l-5.54-6.49v11.3a1.54,1.54,0,1,1-3.08,0V114.68a1.54,1.54,0,0,1,2.71-1L9.79,122l7.08-8.3a1.54,1.54,0,0,1,2.71,1v15.48a1.54,1.54,0,0,1-3.08,0Z"/><path class="cls-1" d="M28.43,130.16v-4.34L22.06,115.5a1.54,1.54,0,1,1,2.62-1.62L30,122.44l5.29-8.56a1.54,1.54,0,0,1,2.62,1.62l-6.37,10.32v4.34a1.54,1.54,0,1,1-3.08,0Z"/><path class="cls-1" d="M49.87,118a6.2,6.2,0,1,0,8.77,8.77A1.54,1.54,0,0,1,60.81,129a9.28,9.28,0,1,1,0-13.13A1.54,1.54,0,0,1,58.64,118,6.22,6.22,0,0,0,49.87,118Z"/><path class="cls-1" d="M76.6,125.84l2.84,3.34a1.54,1.54,0,0,1-.18,2.17,1.54,1.54,0,0,1-2.17-.17l-3.65-4.29c-.17,0-.34,0-.52,0H66.6v3.25a1.54,1.54,0,1,1-3.08,0V114.69a1.53,1.53,0,0,1,1.54-1.54h7.86a6.87,6.87,0,0,1,3.68,12.69Zm.12-5.81a3.8,3.8,0,0,0-3.8-3.8H66.6v7.61h6.32A3.81,3.81,0,0,0,76.72,120Z"/><path class="cls-1" d="M90.93,113.15a9.28,9.28,0,1,1-9.28,9.28A9.29,9.29,0,0,1,90.93,113.15Zm-6.2,9.28a6.2,6.2,0,1,0,6.2-6.2A6.2,6.2,0,0,0,84.73,122.43Z"/><path class="cls-1" d="M143.19,122.43a9.29,9.29,0,0,1-9.28,9.28h-5.47a1.54,1.54,0,0,1-1.54-1.55V114.69a1.54,1.54,0,0,1,1.54-1.54h5.47A9.29,9.29,0,0,1,143.19,122.43Zm-3.08,0a6.21,6.21,0,0,0-6.2-6.2H130v12.39h3.92A6.2,6.2,0,0,0,140.11,122.43Z"/><path class="cls-1" d="M119.71,131.78a1.54,1.54,0,0,1-1.34-.79L113,121.27,107.83,131a1.54,1.54,0,0,1-2.86-.35L101.12,115a1.54,1.54,0,0,1,1.12-1.87,1.55,1.55,0,0,1,1.87,1.13L107,126l4.57-8.64a1.56,1.56,0,0,1,1.35-.82h0a1.55,1.55,0,0,1,1.35.8L119.1,126l2.63-11.66a1.54,1.54,0,1,1,3,.68l-3.52,15.59a1.55,1.55,0,0,1-1.29,1.19Z"/><path class="cls-2" d="M69.22,55.2v31a5.81,5.81,0,1,0,4.75,0v-31a5.68,5.68,0,0,1-4.75,0Z"/><path class="cls-2" d="M71.59,98.09a6.59,6.59,0,0,1-3.16-12.37V54l1.12.51a4.91,4.91,0,0,0,4.09,0L74.76,54V85.72a6.59,6.59,0,0,1-3.17,12.37ZM70,56.32v30.4l-.47.22a5,5,0,1,0,4.09,0l-.47-.21V56.32A6.46,6.46,0,0,1,70,56.32Z"/><ellipse class="cls-2" cx="44.18" cy="20.08" rx="2.37" ry="2.39" transform="translate(23.45 63.97) rotate(-89.16)"/><path class="cls-2" d="M44.19,23.25a3.18,3.18,0,0,1-2.78-1.61,3.12,3.12,0,0,1-.29-2.41,3.15,3.15,0,0,1,1.5-1.91A3.2,3.2,0,0,1,47,18.53h0a3.12,3.12,0,0,1,.29,2.41,3.18,3.18,0,0,1-1.5,1.91A3.23,3.23,0,0,1,44.19,23.25Zm0-4.74a1.58,1.58,0,0,0-1.39,2.35,1.6,1.6,0,0,0,2.17.6,1.55,1.55,0,0,0,.75-.95,1.53,1.53,0,0,0-.14-1.2h0A1.59,1.59,0,0,0,44.18,18.51Z"/><ellipse class="cls-2" cx="52.24" cy="15.58" rx="2.37" ry="2.39" transform="translate(35.9 67.59) rotate(-89.16)"/><path class="cls-2" d="M52.25,18.75a3.18,3.18,0,0,1-2.78-1.62,3.16,3.16,0,0,1,1.22-4.31A3.19,3.19,0,0,1,55,14h0a3.16,3.16,0,0,1-1.22,4.31A3.1,3.1,0,0,1,52.25,18.75Zm0-4.75a1.71,1.71,0,0,0-.78.2,1.57,1.57,0,0,0-.75,1,1.59,1.59,0,0,0,.14,1.19A1.6,1.6,0,0,0,53.78,16a1.55,1.55,0,0,0-.15-1.19h0A1.58,1.58,0,0,0,52.24,14Z"/><ellipse class="cls-2" cx="60.31" cy="11.08" rx="2.37" ry="2.39" transform="translate(48.35 71.22) rotate(-89.16)"/><path class="cls-2" d="M60.31,14.24a3.17,3.17,0,1,1,2.77-4.72,3.16,3.16,0,0,1-1.22,4.32A3.2,3.2,0,0,1,60.31,14.24Zm0-4.74a1.54,1.54,0,0,0-.78.2,1.59,1.59,0,0,0-.76,1,1.57,1.57,0,0,0,.15,1.2,1.6,1.6,0,0,0,2.17.6,1.52,1.52,0,0,0,.75-.95,1.54,1.54,0,0,0-.14-1.19A1.6,1.6,0,0,0,60.31,9.5Z"/><ellipse class="cls-2" cx="99.01" cy="20.08" rx="2.39" ry="2.37" transform="translate(-0.28 1.45) rotate(-0.84)"/><path class="cls-2" d="M99,23.25a3.17,3.17,0,0,1-3.06-2.31,3.17,3.17,0,0,1,.3-2.41h0a3.19,3.19,0,0,1,4.32-1.21,3.16,3.16,0,0,1,1.22,4.32A3.18,3.18,0,0,1,99,23.25Zm-1.38-3.94a1.57,1.57,0,0,0-.15,1.2,1.63,1.63,0,0,0,.76.95,1.6,1.6,0,0,0,2.17-.6,1.57,1.57,0,0,0,.14-1.2,1.55,1.55,0,0,0-.75-.95,1.6,1.6,0,0,0-2.17.6Z"/><ellipse class="cls-2" cx="90.94" cy="15.58" rx="2.39" ry="2.37" transform="matrix(1, -0.01, 0.01, 1, -0.22, 1.33)"/><path class="cls-2" d="M90.94,18.75a3.1,3.1,0,0,1-1.55-.41A3.16,3.16,0,0,1,88.17,14a3.19,3.19,0,0,1,4.33-1.21,3.16,3.16,0,0,1,1.22,4.31A3.19,3.19,0,0,1,90.94,18.75ZM91,14a1.58,1.58,0,0,0-1.39.81A1.55,1.55,0,0,0,89.41,16a1.57,1.57,0,0,0,.75,1,1.6,1.6,0,0,0,2.17-.61,1.55,1.55,0,0,0,.15-1.19,1.61,1.61,0,0,0-.75-1A1.71,1.71,0,0,0,91,14Z"/><ellipse class="cls-2" cx="82.88" cy="11.08" rx="2.39" ry="2.37" transform="translate(-0.15 1.21) rotate(-0.84)"/><path class="cls-2" d="M82.87,14.24a3.25,3.25,0,0,1-1.55-.4,3.17,3.17,0,0,1-1.21-4.32,3.2,3.2,0,0,1,4.33-1.21,3.17,3.17,0,0,1-1.57,5.93Zm0-4.74a1.6,1.6,0,0,0-1.39.81,1.5,1.5,0,0,0-.14,1.19,1.52,1.52,0,0,0,.75.95,1.6,1.6,0,0,0,2.17-.6,1.57,1.57,0,0,0,.15-1.2,1.63,1.63,0,0,0-.76-1A1.54,1.54,0,0,0,82.88,9.5Z"/><path class="cls-1" d="M111,64.39V33.66a6.59,6.59,0,1,0-9.58-6.15L74.93,43.34a6.55,6.55,0,0,0-6.73,0L41.75,28a6.59,6.59,0,1,0-9.65,5.65V64.43a6.63,6.63,0,1,0,6.33.12v-31l.15-.09L65,48.85c0,.06,0,.12,0,.18a6.63,6.63,0,0,0,3.9,6,6.52,6.52,0,0,0,5.4,0,6.62,6.62,0,0,0,3.9-6,2,2,0,0,0,0-.25l26.08-15.59.41.26V64.6a6.58,6.58,0,1,0,6.33-.21ZM108,73a2.69,2.69,0,0,1-2.69-2.68,3.05,3.05,0,0,1,.05-.52c0-.11.07-.24.12-.37l0-.13a2.4,2.4,0,0,1,.52-.8,2.64,2.64,0,0,1,4,.16l0,0a2.75,2.75,0,0,1,.28.44l0,.06a1.69,1.69,0,0,1,.16.45l0,.1v0a2.34,2.34,0,0,1,.07.57A2.69,2.69,0,0,1,108,73ZM35.18,73a2.69,2.69,0,0,1-2.69-2.68,2.64,2.64,0,0,1,.06-.55h0l0-.12a3,3,0,0,1,.14-.42l0-.07a4.64,4.64,0,0,1,.25-.42l0,0a1.84,1.84,0,0,1,.38-.41,2.63,2.63,0,0,1,1.76-.68,2.68,2.68,0,0,1,1.9.79,2.4,2.4,0,0,1,.3.37l0,.06a3.91,3.91,0,0,1,.2.37.2.2,0,0,0,0,.08c0,.11.07.24.11.37a.93.93,0,0,0,0,.13,3,3,0,0,1,0,.52A2.69,2.69,0,0,1,35.18,73Z"/><path class="cls-3" d="M38.59,69.57s0-.1,0-.15a4.32,4.32,0,0,0-.16-.51.43.43,0,0,1,0-.07,3.29,3.29,0,0,0-.29-.52l0,0a3.56,3.56,0,0,0-.39-.48,3.45,3.45,0,0,0-4.75-.14,4.1,4.1,0,0,0-.49.53h0a3.44,3.44,0,0,0-.35.58l0,.06a2.84,2.84,0,0,0-.2.58s0,.08,0,.12a3.57,3.57,0,0,0-.08.74,3.48,3.48,0,1,0,7,0A3.2,3.2,0,0,0,38.59,69.57Z"/><path class="cls-3" d="M35.18,74.15a3.88,3.88,0,0,1-3.88-3.88,4,4,0,0,1,.09-.83l0-.11v0a3.47,3.47,0,0,1,.23-.65l0-.06a4,4,0,0,1,.39-.65l0,0a4.11,4.11,0,0,1,.53-.57,3.83,3.83,0,0,1,5.72.68l0,.06a3.43,3.43,0,0,1,.32.58.59.59,0,0,1,0,.08,3.13,3.13,0,0,1,.18.57v0a.74.74,0,0,1,0,.14h0a4,4,0,0,1,.08.78A3.88,3.88,0,0,1,35.18,74.15Zm-2.47-5.71a2.76,2.76,0,0,0-.3.5l0,.06a2.68,2.68,0,0,0-.18.51l0,.08v0a2.82,2.82,0,0,0-.08.65,3.09,3.09,0,0,0,6.17,0,3.18,3.18,0,0,0-.06-.62v0l0-.1c0-.15-.08-.3-.13-.44A.3.3,0,0,1,38,69a4.17,4.17,0,0,0-.24-.44l0,0a5.41,5.41,0,0,0-.35-.43A3.06,3.06,0,0,0,33.15,68a3.2,3.2,0,0,0-.43.47Z"/><path class="cls-4" d="M111.4,69.51c0-.05,0-.1,0-.15a3.9,3.9,0,0,0-.21-.57.41.41,0,0,0-.05-.09,3,3,0,0,0-.36-.56l0,0a3.14,3.14,0,0,0-.51-.52h0a3.42,3.42,0,0,0-2.2-.81,3.47,3.47,0,0,0-2.55,1.13h0a3.56,3.56,0,0,0-.68,1.06,1,1,0,0,0,0,.14,2.9,2.9,0,0,0-.14.48,3.08,3.08,0,0,0-.07.68,3.48,3.48,0,0,0,7,0A3.16,3.16,0,0,0,111.4,69.51Z"/><path class="cls-4" d="M108,74.15a3.88,3.88,0,0,1-3.88-3.88,4,4,0,0,1,.08-.76c0-.19.1-.37.15-.53v0a.93.93,0,0,0,0-.13,3.91,3.91,0,0,1,.76-1.18A3.83,3.83,0,0,1,108,66.39a3.73,3.73,0,0,1,1.8.45v-.09l.65.53a3.92,3.92,0,0,1,.57.58l0,0a3.3,3.3,0,0,1,.39.62l0,0,0,.08a3.35,3.35,0,0,1,.23.64.06.06,0,0,1,0,0,.56.56,0,0,1,0,.12,3.58,3.58,0,0,1,.1.85A3.88,3.88,0,0,1,108,74.15Zm0-7a3.08,3.08,0,0,0-2.26,1,3.13,3.13,0,0,0-.6.94s0,0,0,0l0,.09a2.92,2.92,0,0,0-.13.42,3.05,3.05,0,0,0-.06.6,3.09,3.09,0,0,0,6.18,0,3.14,3.14,0,0,0-.08-.67h0s0,0,0,0a.29.29,0,0,1,0-.09,3.44,3.44,0,0,0-.18-.5l0,0,0-.06a3.06,3.06,0,0,0-.32-.5l.06,0,0,0,0,0A3,3,0,0,0,110,68l-.07-.06A3,3,0,0,0,108,67.18Zm2.59,1h0l.13-.11Z"/><path class="cls-2" d="M71.59,0a6.56,6.56,0,1,0,6.56,6.56A6.57,6.57,0,0,0,71.59,0Zm0,10.42a3.86,3.86,0,1,1,3.86-3.86A3.87,3.87,0,0,1,71.59,10.42Z"/></svg>