<?xml version="1.0" encoding="iso-8859-1"?>
<!-- Generator: Adobe Illustrator 24.1.2, SVG Export Plug-In . SVG Version: 6.00 Build 0)  -->
<svg version="1.1" id="Layer_1" xmlns="http://www.w3.org/2000/svg" xmlns:xlink="http://www.w3.org/1999/xlink" x="0px" y="0px"
	 viewBox="0 0 21.127 7.7" style="enable-background:new 0 0 21.127 7.7;" xml:space="preserve">
<polygon style="fill:#323232;" points="19.917,0 18.927,3.3 17.937,0 16.727,0 18.377,4.84 18.377,7.7 19.477,7.7 19.477,4.84 
	21.127,0 "/>
<polygon style="fill:#323232;" points="14.362,0 14.362,7.7 17.111,7.7 17.111,6.601 15.462,6.601 15.462,0 "/>
<path style="fill:#323232;" d="M11.557,1.98l0.522,2.97h-1.045L11.557,1.98z M10.951,0l-1.54,7.7h1.101l0.313-1.649h1.463
	L12.602,7.7h1.099L12.161,0H10.951z"/>
<polygon style="fill:#323232;" points="5.782,0 5.782,7.7 8.862,7.7 8.862,6.601 6.882,6.601 6.882,4.4 8.642,4.4 8.642,3.3 
	6.882,3.3 6.882,1.1 8.862,1.1 8.862,0 "/>
<polygon style="fill:#323232;" points="3.493,0 2.341,3.516 1.188,0 0,0 0,7.7 1.1,7.7 1.1,2.641 2.341,6.16 3.581,2.641 3.581,7.7 
	4.681,7.7 4.681,0 "/>
</svg>
