<svg width="50" height="18" viewBox="0 0 50 18" fill="none" xmlns="http://www.w3.org/2000/svg">
<path d="M46.8291 0.00390625L44.502 7.71536L42.1734 0.00390625H39.3281L43.2082 11.3137V17.9968H45.7944V11.3137L49.6744 0.00390625H46.8291Z" fill="#231815"/>
<path d="M36.3557 0.00390625H33.7695V17.9968H40.2358V15.4254H36.3557V0.00390625Z" fill="#231815"/>
<path d="M25.7499 0L22.1289 17.9972H24.7151L25.4524 14.1443H28.8998L29.637 18H32.2161L28.5952 0H25.7499ZM25.9435 11.5672L27.1718 4.62659L28.4016 11.5672H25.9435Z" fill="#231815"/>
<path d="M13.5918 17.9968H20.8352V15.4254H16.1794V10.2854H20.3171V7.71536H16.1794V2.57392H20.8352V0.00390625H13.5918V17.9968Z" fill="#231815"/>
<path d="M8.2127 0.00390625L5.50265 8.22031L2.79402 0.00390625H0V17.9968H2.58622V6.17364L5.50265 14.3985L8.4205 6.17364V17.9968H11.0067V0.00390625H8.2127Z" fill="#231815"/>
</svg>
