<?xml version="1.0" encoding="iso-8859-1"?>
<!-- Generator: Adobe Illustrator 24.1.2, SVG Export Plug-In . SVG Version: 6.00 Build 0)  -->
<svg version="1.1" id="Layer_1" xmlns="http://www.w3.org/2000/svg" xmlns:xlink="http://www.w3.org/1999/xlink" x="0px" y="0px"
	 viewBox="0 0 189.024 47.493" style="enable-background:new 0 0 189.024 47.493;" xml:space="preserve">
<g>
	<path style="fill:#323232;" d="M47.03,47.097h-9.459l-7.607-23.218l-7.607,23.218h-9.393L0,0h12.104l6.152,24.871L25.863,0h8.202
		l7.607,24.871L47.824,0h12.104L47.03,47.097z"/>
	<path style="fill:#323232;" d="M70.437,32.809c0,2.911,2.249,5.557,6.284,5.557c3.771,0,5.424-1.059,7.342-2.977l6.482,6.482
		c-3.638,3.638-7.21,5.622-13.824,5.622c-7.871,0-16.934-2.844-16.934-18.19c0-11.642,6.614-18.189,15.941-18.189
		c10.318,0,16.008,7.54,16.008,16.867v4.828H70.437z M80.425,22.82c-0.661-1.521-2.116-2.777-4.696-2.777
		c-2.58,0-4.035,1.257-4.696,2.777c-0.463,0.927-0.596,1.919-0.596,2.778h10.584C81.021,24.739,80.888,23.747,80.425,22.82z"/>
	<path style="fill:#323232;" d="M99.008,47.097V0h11.575v47.097H99.008z"/>
	<path style="fill:#323232;" d="M120.105,47.097V0h11.575v47.097H120.105z"/>
	<path style="fill:#323232;" d="M140.542,47.493V16.609h10.848v30.884H140.542z"/>
	<path style="fill:#323232;" d="M178.508,47.097v-2.91c-2.184,2.183-4.498,3.307-8.202,3.307c-3.44,0-6.615-1.19-8.666-3.241
		c-3.506-3.506-3.307-9.724-3.307-14.949s-0.199-11.443,3.307-14.949c2.051-2.05,5.16-3.24,8.6-3.24
		c3.506,0,5.953,0.992,7.938,2.977V0h10.848v47.097H178.508z M173.679,20.902c-4.035,0-4.498,3.241-4.498,8.4
		c0,5.16,0.463,8.401,4.498,8.401c4.035,0,4.498-3.241,4.498-8.401C178.177,24.144,177.714,20.902,173.679,20.902z"/>
	<path style="fill:#323232;" d="M145.966,13.229c-3.639,0-6.615-2.976-6.615-6.614c0-3.639,2.976-6.615,6.615-6.615
		c3.638,0,6.614,2.977,6.614,6.615C152.58,10.253,149.604,13.229,145.966,13.229z"/>
</g>
</svg>
