<svg width="141" height="128" viewBox="0 0 141 128" fill="none" xmlns="http://www.w3.org/2000/svg">
<path d="M16.2034 126.422V115.433L10.7657 121.752C10.7657 121.752 10.7049 121.812 10.6806 121.836C10.6563 121.86 10.6319 121.896 10.5954 121.921C10.5954 121.921 10.5711 121.921 10.5711 121.945C10.5224 121.981 10.4738 122.005 10.4373 122.041C10.4008 122.065 10.3643 122.089 10.3278 122.113C10.2792 122.137 10.2305 122.149 10.1818 122.173C10.1332 122.197 10.0967 122.209 10.048 122.221C9.99937 122.233 9.95071 122.246 9.90205 122.246C9.85339 122.246 9.80473 122.27 9.75607 122.27C9.70741 122.27 9.65876 122.27 9.6101 122.27C9.56144 122.27 9.51278 122.27 9.46412 122.27C9.41546 122.27 9.3668 122.258 9.31814 122.246C9.26949 122.246 9.22083 122.233 9.18433 122.221C9.13567 122.209 9.09918 122.185 9.05052 122.173C9.00186 122.149 8.9532 122.137 8.91671 122.113C8.88022 122.089 8.84372 122.065 8.80723 122.041C8.75857 122.005 8.70991 121.981 8.67342 121.945C8.67342 121.945 8.64909 121.945 8.64909 121.921C8.61259 121.896 8.58826 121.86 8.56393 121.836C8.53961 121.812 8.50311 121.788 8.47878 121.752L3.04117 115.433V126.422C3.04117 127.253 2.35995 127.927 1.52058 127.927C0.681222 127.927 0 127.253 0 126.422V111.364C0 110.738 0.401434 110.173 0.997504 109.956C1.59357 109.739 2.26263 109.908 2.67623 110.389L9.63443 118.466L16.5926 110.389C17.0062 109.908 17.6753 109.739 18.2713 109.956C18.8674 110.173 19.2689 110.738 19.2689 111.364V126.422C19.2689 127.253 18.5876 127.927 17.7483 127.927C16.9089 127.927 16.2277 127.253 16.2277 126.422H16.2034Z" fill="#2BB6A8"/>
<path d="M27.9297 126.424V122.199L21.6649 112.16C21.227 111.462 21.4459 110.535 22.1637 110.102C22.8814 109.668 23.8059 109.885 24.2438 110.595L29.4381 118.925L34.6325 110.595C35.0704 109.897 36.0071 109.668 36.7126 110.102C37.4182 110.535 37.6493 111.462 37.2114 112.16L30.9466 122.199V126.424C30.9466 127.254 30.2653 127.928 29.426 127.928C28.5866 127.928 27.9175 127.254 27.9175 126.424H27.9297Z" fill="#2BB6A8"/>
<path d="M48.9987 114.64C46.6266 116.987 46.6266 120.814 48.9987 123.162C51.3708 125.509 55.2392 125.509 57.6113 123.162C58.2074 122.572 59.1684 122.572 59.7523 123.162C60.3484 123.751 60.3484 124.69 59.7523 125.28C58.0249 126.989 55.738 127.928 53.305 127.928C50.8721 127.928 48.573 126.989 46.8577 125.28C45.1304 123.571 44.1815 121.308 44.1815 118.901C44.1815 116.493 45.1304 114.218 46.8577 112.521C50.4098 109.006 56.2002 109.006 59.7523 112.521C60.3484 113.111 60.3484 114.05 59.7523 114.64C59.1562 115.229 58.2074 115.229 57.6113 114.64C55.2392 112.292 51.3708 112.292 48.9987 114.64Z" fill="#2BB6A8"/>
<path d="M75.2594 122.222L78.0451 125.46C78.5925 126.086 78.5073 127.037 77.8748 127.566C77.595 127.807 77.2422 127.927 76.8894 127.927C76.4637 127.927 76.0379 127.747 75.7338 127.398L72.1452 123.233C71.9749 123.245 71.8046 123.257 71.6343 123.257H65.4181V126.423C65.4181 127.253 64.7369 127.927 63.8975 127.927C63.0582 127.927 62.377 127.253 62.377 126.423V111.365C62.377 110.534 63.0582 109.86 63.8975 109.86H71.6221C75.3567 109.86 78.3857 112.869 78.3857 116.553C78.3857 118.924 77.1205 121.018 75.235 122.21L75.2594 122.222ZM75.381 116.565C75.381 114.518 73.7023 112.857 71.6464 112.857H65.4425V120.26H71.6464C73.7023 120.26 75.381 118.599 75.381 116.565Z" fill="#2BB6A8"/>
<path d="M89.3482 109.872C94.3722 109.872 98.4717 113.916 98.4717 118.9C98.4717 123.883 94.3844 127.927 89.3482 127.927C84.312 127.927 80.2247 123.883 80.2247 118.9C80.2247 113.916 84.312 109.872 89.3482 109.872ZM83.2537 118.9C83.2537 122.222 85.9907 124.93 89.3482 124.93C92.7056 124.93 95.4427 122.222 95.4427 118.9C95.4427 115.578 92.7056 112.869 89.3482 112.869C85.9907 112.869 83.2537 115.578 83.2537 118.9Z" fill="#2BB6A8"/>
<path d="M140.719 118.9C140.719 123.871 136.632 127.927 131.596 127.927H126.219C125.379 127.927 124.698 127.253 124.698 126.423V111.365C124.698 110.534 125.379 109.872 126.219 109.872H131.596C136.62 109.872 140.719 113.916 140.719 118.9ZM137.69 118.9C137.69 115.578 134.953 112.869 131.596 112.869H127.739V124.93H131.596C134.953 124.93 137.69 122.222 137.69 118.9Z" fill="#2BB6A8"/>
<path d="M117.644 128C117.097 128 116.586 127.711 116.318 127.23L111.002 117.769L105.966 127.194C105.674 127.747 105.078 128.06 104.446 127.976C103.825 127.904 103.314 127.446 103.156 126.844L99.373 111.678C99.1784 110.872 99.665 110.065 100.48 109.86C101.283 109.668 102.11 110.149 102.317 110.956L105.151 122.307L109.64 113.905C109.895 113.423 110.406 113.11 110.966 113.11H110.978C111.526 113.11 112.036 113.399 112.304 113.881L117.048 122.319L119.639 110.98C119.822 110.173 120.625 109.656 121.452 109.848C122.267 110.029 122.778 110.835 122.595 111.642L119.128 126.808C118.995 127.41 118.484 127.868 117.863 127.964C117.79 127.964 117.717 127.976 117.644 127.976V128Z" fill="#2BB6A8"/>
<path d="M35.0116 25.084H30.7296V69.488H35.0116V25.084Z" fill="#2BB6A8"/>
<path d="M72.4909 47.4009H68.209V90.0836H72.4909V47.4009Z" fill="#9F9E9F"/>
<path d="M70.3477 94.0925C72.5849 94.0925 74.3986 92.2979 74.3986 90.0842C74.3986 87.8705 72.5849 86.0759 70.3477 86.0759C68.1105 86.0759 66.2969 87.8705 66.2969 90.0842C66.2969 92.2979 68.1105 94.0925 70.3477 94.0925Z" fill="#9F9E9F"/>
<path d="M70.3511 94.8023C67.7235 94.8023 65.5947 92.6838 65.5947 90.0959C65.5947 87.508 67.7357 85.3774 70.3511 85.3774C72.9665 85.3774 75.1197 87.4959 75.1197 90.0959C75.1197 92.6959 72.9787 94.8023 70.3511 94.8023ZM70.3511 86.7858C68.5143 86.7858 67.018 88.2663 67.018 90.0839C67.018 91.9014 68.5143 93.382 70.3511 93.382C72.188 93.382 73.6842 91.9014 73.6842 90.0839C73.6842 88.2663 72.188 86.7858 70.3511 86.7858Z" fill="#9F9E9F"/>
<path d="M109.885 69.0798H105.591V29.021L70.3622 49.8689L31.715 27.5525L33.8681 23.8933L70.3378 44.9338L109.885 21.5461V69.0798Z" fill="#2BB6A8"/>
<path d="M70.3477 51.4091C72.5849 51.4091 74.3986 49.6146 74.3986 47.4009C74.3986 45.1871 72.5849 43.3926 70.3477 43.3926C68.1105 43.3926 66.2969 45.1871 66.2969 47.4009C66.2969 49.6146 68.1105 51.4091 70.3477 51.4091Z" fill="#2BB6A8"/>
<path d="M70.3511 52.1075C67.7235 52.1075 65.5947 49.989 65.5947 47.4011C65.5947 44.8131 67.7357 42.6826 70.3511 42.6826C72.9665 42.6826 75.1197 44.8011 75.1197 47.4011C75.1197 50.001 72.9787 52.1075 70.3511 52.1075ZM70.3511 44.0909C68.5143 44.0909 67.018 45.5715 67.018 47.389C67.018 49.2066 68.5143 50.6871 70.3511 50.6871C72.188 50.6871 73.6842 49.2066 73.6842 47.389C73.6842 45.5715 72.188 44.0909 70.3511 44.0909Z" fill="#2BB6A8"/>
<path d="M32.7882 29.7312C35.0254 29.7312 36.839 27.9366 36.839 25.7229C36.839 23.5092 35.0254 21.7146 32.7882 21.7146C30.551 21.7146 28.7374 23.5092 28.7374 25.7229C28.7374 27.9366 30.551 29.7312 32.7882 29.7312Z" fill="#2BB6A8"/>
<path d="M32.7963 30.4292C32.5287 30.4292 32.2489 30.4051 31.9691 30.3569C30.7162 30.1403 29.6214 29.4542 28.8915 28.419C28.1616 27.3838 27.8818 26.144 28.1008 24.9042C28.3197 23.6644 29.0131 22.5811 30.0593 21.8589C31.1054 21.1367 32.3584 20.8598 33.6114 21.0765C34.8643 21.2932 35.9592 21.9793 36.689 23.0144C37.4189 24.0496 37.6987 25.2894 37.4797 26.5292C37.2608 27.769 36.5674 28.8523 35.5212 29.5745C34.7062 30.1403 33.7695 30.4292 32.7963 30.4292ZM32.7842 22.4126C32.103 22.4126 31.4461 22.6172 30.8743 23.0144C30.1444 23.52 29.6579 24.2783 29.4997 25.145C29.3416 26.0116 29.5484 26.8903 30.0593 27.6125C30.5702 28.3347 31.3366 28.8162 32.2124 28.9607C33.1005 29.1171 33.9763 28.9125 34.7062 28.407C35.4361 27.9014 35.9227 27.1431 36.0808 26.2764C36.2389 25.4098 36.0321 24.5311 35.5212 23.8089C35.0103 23.0867 34.2439 22.6052 33.3681 22.4607C33.1734 22.4246 32.9788 22.4126 32.7842 22.4126Z" fill="#2BB6A8"/>
<path d="M32.7844 73.0878C35.0216 73.0878 36.8352 71.2933 36.8352 69.0796C36.8352 66.8659 35.0216 65.0713 32.7844 65.0713C30.5472 65.0713 28.7335 66.8659 28.7335 69.0796C28.7335 71.2933 30.5472 73.0878 32.7844 73.0878Z" fill="#E5E144"/>
<path d="M32.7831 73.7852C30.1555 73.7852 28.0145 71.6667 28.0145 69.0788C28.0145 66.4909 30.1555 64.3604 32.7831 64.3604C35.4107 64.3604 37.5395 66.4788 37.5395 69.0788C37.5395 71.6788 35.3985 73.7852 32.7831 73.7852ZM32.7831 65.7687C30.9462 65.7687 29.45 67.2492 29.45 69.0668C29.45 70.8843 30.9462 72.3649 32.7831 72.3649C34.62 72.3649 36.1162 70.8843 36.1162 69.0668C36.1162 67.2492 34.62 65.7687 32.7831 65.7687Z" fill="#2BB6A8"/>
<path d="M107.913 29.7309C110.15 29.7309 111.964 27.9363 111.964 25.7226C111.964 23.5089 110.15 21.7144 107.913 21.7144C105.676 21.7144 103.862 23.5089 103.862 25.7226C103.862 27.9363 105.676 29.7309 107.913 29.7309Z" fill="#2BB6A8"/>
<path d="M107.915 30.4298C105.287 30.4298 103.158 28.3113 103.158 25.7113C103.158 23.1113 105.299 21.0049 107.915 21.0049C110.53 21.0049 112.683 23.1234 112.683 25.7113C112.683 28.2992 110.542 30.4298 107.915 30.4298ZM107.915 22.4132C106.078 22.4132 104.581 23.8937 104.581 25.7113C104.581 27.5289 106.078 29.0094 107.915 29.0094C109.751 29.0094 111.248 27.5289 111.248 25.7113C111.248 23.8937 109.751 22.4132 107.915 22.4132Z" fill="#2BB6A8"/>
<path d="M107.913 73.0878C110.15 73.0878 111.964 71.2933 111.964 69.0796C111.964 66.8659 110.15 65.0713 107.913 65.0713C105.676 65.0713 103.862 66.8659 103.862 69.0796C103.862 71.2933 105.676 73.0878 107.913 73.0878Z" fill="#DE6A6F"/>
<path d="M107.915 73.7867C105.287 73.7867 103.158 71.6682 103.158 69.0803C103.158 66.4923 105.299 64.3618 107.915 64.3618C110.53 64.3618 112.683 66.4803 112.683 69.0803C112.683 71.6802 110.542 73.7867 107.915 73.7867ZM107.915 65.7701C106.078 65.7701 104.581 67.2507 104.581 69.0682C104.581 70.8858 106.078 72.3663 107.915 72.3663C109.751 72.3663 111.248 70.8858 111.248 69.0682C111.248 67.2507 109.751 65.7701 107.915 65.7701Z" fill="#2BB6A8"/>
<path d="M70.3532 9.42487C67.7257 9.42487 65.5968 7.30638 65.5968 4.71846C65.5968 2.13053 67.7378 0 70.3532 0C72.9686 0 75.1218 2.11849 75.1218 4.71846C75.1218 7.31842 72.9808 9.42487 70.3532 9.42487ZM70.3532 1.40831C68.5164 1.40831 67.0201 2.88885 67.0201 4.70642C67.0201 6.52399 68.5164 8.00452 70.3532 8.00452C72.1901 8.00452 73.6863 6.52399 73.6863 4.70642C73.6863 2.88885 72.1901 1.40831 70.3532 1.40831Z" fill="#9F9E9F"/>
<path d="M41.2837 22.0396C42.1302 22.0396 42.8165 21.3606 42.8165 20.523C42.8165 19.6854 42.1302 19.0063 41.2837 19.0063C40.4372 19.0063 39.751 19.6854 39.751 20.523C39.751 21.3606 40.4372 22.0396 41.2837 22.0396Z" fill="#9F9E9F"/>
<path d="M46.4175 19.0785C47.264 19.0785 47.9502 18.3994 47.9502 17.5618C47.9502 16.7242 47.264 16.0452 46.4175 16.0452C45.571 16.0452 44.8847 16.7242 44.8847 17.5618C44.8847 18.3994 45.571 19.0785 46.4175 19.0785Z" fill="#9F9E9F"/>
<path d="M51.5629 16.1295C52.4094 16.1295 53.0956 15.4505 53.0956 14.6128C53.0956 13.7752 52.4094 13.0962 51.5629 13.0962C50.7164 13.0962 50.0301 13.7752 50.0301 14.6128C50.0301 15.4505 50.7164 16.1295 51.5629 16.1295Z" fill="#9F9E9F"/>
<path d="M56.6957 13.1688C57.5422 13.1688 58.2284 12.4898 58.2284 11.6521C58.2284 10.8145 57.5422 10.1355 56.6957 10.1355C55.8491 10.1355 55.1629 10.8145 55.1629 11.6521C55.1629 12.4898 55.8491 13.1688 56.6957 13.1688Z" fill="#9F9E9F"/>
<path d="M61.8294 10.2193C62.6759 10.2193 63.3622 9.5403 63.3622 8.70268C63.3622 7.86506 62.6759 7.18604 61.8294 7.18604C60.9829 7.18604 60.2967 7.86506 60.2967 8.70268C60.2967 9.5403 60.9829 10.2193 61.8294 10.2193Z" fill="#9F9E9F"/>
<path d="M100.338 22.0396C101.185 22.0396 101.871 21.3606 101.871 20.523C101.871 19.6854 101.185 19.0063 100.338 19.0063C99.4917 19.0063 98.8055 19.6854 98.8055 20.523C98.8055 21.3606 99.4917 22.0396 100.338 22.0396Z" fill="#9F9E9F"/>
<path d="M95.1918 19.0787C96.0384 19.0787 96.7246 18.3997 96.7246 17.5621C96.7246 16.7244 96.0384 16.0454 95.1918 16.0454C94.3453 16.0454 93.6591 16.7244 93.6591 17.5621C93.6591 18.3997 94.3453 19.0787 95.1918 19.0787Z" fill="#9F9E9F"/>
<path d="M90.0581 16.13C90.9046 16.13 91.5908 15.4509 91.5908 14.6133C91.5908 13.7757 90.9046 13.0967 90.0581 13.0967C89.2116 13.0967 88.5253 13.7757 88.5253 14.6133C88.5253 15.4509 89.2116 16.13 90.0581 16.13Z" fill="#9F9E9F"/>
<path d="M84.9136 13.1698C85.7601 13.1698 86.4464 12.4907 86.4464 11.6531C86.4464 10.8155 85.7601 10.1365 84.9136 10.1365C84.0671 10.1365 83.3809 10.8155 83.3809 11.6531C83.3809 12.4907 84.0671 13.1698 84.9136 13.1698Z" fill="#9F9E9F"/>
<path d="M79.7798 10.2196C80.6263 10.2196 81.3126 9.54055 81.3126 8.70293C81.3126 7.86531 80.6263 7.18628 79.7798 7.18628C78.9333 7.18628 78.2471 7.86531 78.2471 8.70293C78.2471 9.54055 78.9333 10.2196 79.7798 10.2196Z" fill="#9F9E9F"/>
</svg>
