<svg width="120" height="109" viewBox="0 0 120 109" fill="none" xmlns="http://www.w3.org/2000/svg">
<path d="M13.7787 107.503V98.1578L9.15483 103.531C9.15483 103.531 9.10311 103.583 9.08242 103.603C9.06173 103.624 9.04104 103.654 9.01001 103.675C9.01001 103.675 8.98932 103.675 8.98932 103.695C8.94794 103.726 8.90657 103.746 8.87554 103.777C8.8445 103.798 8.81347 103.818 8.78244 103.839C8.74106 103.859 8.69968 103.869 8.65831 103.89C8.61693 103.91 8.5859 103.92 8.54452 103.931C8.50315 103.941 8.46177 103.951 8.42039 103.951C8.37901 103.951 8.33764 103.972 8.29626 103.972C8.25488 103.972 8.21351 103.972 8.17213 103.972C8.13075 103.972 8.08938 103.972 8.048 103.972C8.00662 103.972 7.96525 103.961 7.92387 103.951C7.88249 103.951 7.84112 103.941 7.81008 103.931C7.76871 103.92 7.73768 103.9 7.6963 103.89C7.65492 103.869 7.61355 103.859 7.58251 103.839C7.55148 103.818 7.52045 103.798 7.48941 103.777C7.44804 103.746 7.40666 103.726 7.37563 103.695C7.37563 103.695 7.35494 103.695 7.35494 103.675C7.32391 103.654 7.30322 103.624 7.28253 103.603C7.26184 103.583 7.23081 103.562 7.21012 103.531L2.58627 98.1578V107.503C2.58627 108.209 2.007 108.782 1.29325 108.782C0.579503 108.782 0.000228882 108.209 0.000228882 107.503V94.6982C0.000228882 94.166 0.341587 93.6849 0.848452 93.5007C1.35532 93.3164 1.92425 93.4597 2.27595 93.8691L8.19282 100.737L14.1097 93.8691C14.4614 93.4597 15.0303 93.3164 15.5372 93.5007C16.0441 93.6849 16.3854 94.166 16.3854 94.6982V107.503C16.3854 108.209 15.8061 108.782 15.0924 108.782C14.3786 108.782 13.7994 108.209 13.7994 107.503H13.7787Z" fill="white"/>
<path d="M23.7504 107.504V103.911L18.4231 95.3747C18.0507 94.781 18.2369 93.9929 18.8472 93.6244C19.4575 93.2559 20.2437 93.4402 20.6161 94.0441L25.033 101.127L29.45 94.0441C29.8224 93.4504 30.6189 93.2559 31.2189 93.6244C31.8188 93.9929 32.0154 94.781 31.643 95.3747L26.3157 103.911V107.504C26.3157 108.21 25.7364 108.783 25.0227 108.783C24.3089 108.783 23.74 108.21 23.74 107.504H23.7504Z" fill="white"/>
<path d="M41.6659 97.4834C39.6487 99.4794 39.6487 102.734 41.6659 104.73C43.683 106.726 46.9724 106.726 48.9895 104.73C49.4964 104.229 50.3136 104.229 50.8101 104.73C51.317 105.232 51.317 106.03 50.8101 106.532C49.3412 107.985 47.3965 108.783 45.3277 108.783C43.2589 108.783 41.3038 107.985 39.8453 106.532C38.3764 105.078 37.5696 103.154 37.5696 101.107C37.5696 99.0597 38.3764 97.1252 39.8453 95.682C42.8658 92.6932 47.7896 92.6932 50.8101 95.682C51.317 96.1835 51.317 96.9819 50.8101 97.4834C50.3033 97.985 49.4964 97.985 48.9895 97.4834C46.9724 95.4875 43.683 95.4875 41.6659 97.4834Z" fill="white"/>
<path d="M63.9966 103.931L66.3654 106.684C66.8309 107.216 66.7585 108.025 66.2206 108.475C65.9826 108.68 65.6827 108.782 65.3827 108.782C65.0206 108.782 64.6586 108.629 64.4 108.332L61.3484 104.791C61.2036 104.801 61.0588 104.811 60.914 104.811H55.6281V107.503C55.6281 108.209 55.0488 108.782 54.3351 108.782C53.6213 108.782 53.0421 108.209 53.0421 107.503V94.6984C53.0421 93.9921 53.6213 93.4189 54.3351 93.4189H60.9036C64.0793 93.4189 66.655 95.9778 66.655 99.1099C66.655 101.126 65.5792 102.907 63.9759 103.921L63.9966 103.931ZM64.1 99.1201C64.1 97.3801 62.6725 95.9676 60.9243 95.9676H55.6488V102.262H60.9243C62.6725 102.262 64.1 100.85 64.1 99.1201Z" fill="white"/>
<path d="M75.9773 93.4293C80.2494 93.4293 83.7354 96.8685 83.7354 101.106C83.7354 105.343 80.2598 108.783 75.9773 108.783C71.6948 108.783 68.2191 105.343 68.2191 101.106C68.2191 96.8685 71.6948 93.4293 75.9773 93.4293ZM70.7948 101.106C70.7948 103.931 73.1223 106.234 75.9773 106.234C78.8323 106.234 81.1597 103.931 81.1597 101.106C81.1597 98.281 78.8323 95.978 75.9773 95.978C73.1223 95.978 70.7948 98.281 70.7948 101.106Z" fill="white"/>
<path d="M119.661 101.106C119.661 105.333 116.185 108.783 111.903 108.783H107.33C106.617 108.783 106.037 108.209 106.037 107.503V94.6985C106.037 93.9923 106.617 93.4293 107.33 93.4293H111.903C116.175 93.4293 119.661 96.8685 119.661 101.106ZM117.085 101.106C117.085 98.281 114.758 95.978 111.903 95.978H108.623V106.234H111.903C114.758 106.234 117.085 103.931 117.085 101.106Z" fill="white"/>
<path d="M100.038 108.844C99.5727 108.844 99.1383 108.599 98.9107 108.189L94.3903 100.144L90.1078 108.159C89.8595 108.629 89.3527 108.896 88.8148 108.824C88.2872 108.763 87.8528 108.374 87.7183 107.862L84.5012 94.9651C84.3357 94.2793 84.7495 93.5935 85.4426 93.4195C86.1253 93.2557 86.8287 93.6651 87.0045 94.3509L89.4147 104.003L93.2317 96.8586C93.449 96.4492 93.8834 96.1831 94.3592 96.1831H94.3696C94.8351 96.1831 95.2695 96.4287 95.4971 96.8382L99.5313 104.013L101.735 94.3714C101.89 93.6856 102.573 93.2455 103.276 93.4093C103.969 93.5628 104.403 94.2486 104.248 94.9343L101.3 107.831C101.186 108.343 100.752 108.732 100.224 108.814C100.162 108.814 100.1 108.824 100.038 108.824V108.844Z" fill="white"/>
<path d="M29.7719 21.3301H26.1308V59.0889H29.7719V21.3301Z" fill="white"/>
<path d="M61.6419 40.3073H58.0007V76.6023H61.6419V40.3073Z" fill="white"/>
<path d="M59.8201 80.0113C61.7225 80.0113 63.2647 78.4853 63.2647 76.6029C63.2647 74.7205 61.7225 73.1945 59.8201 73.1945C57.9177 73.1945 56.3755 74.7205 56.3755 76.6029C56.3755 78.4853 57.9177 80.0113 59.8201 80.0113Z" fill="white"/>
<path d="M59.8226 80.6147C57.5883 80.6147 55.778 78.8133 55.778 76.6127C55.778 74.412 57.5986 72.6003 59.8226 72.6003C62.0466 72.6003 63.8775 74.4018 63.8775 76.6127C63.8775 78.8235 62.0569 80.6147 59.8226 80.6147ZM59.8226 73.7979C58.2606 73.7979 56.9883 75.0569 56.9883 76.6024C56.9883 78.148 58.2606 79.407 59.8226 79.407C61.3846 79.407 62.6569 78.148 62.6569 76.6024C62.6569 75.0569 61.3846 73.7979 59.8226 73.7979Z" fill="white"/>
<path d="M93.4404 58.7415H89.7889V24.6778L59.8321 42.4057L26.9687 23.429L28.7996 20.3175L59.8115 38.2091L93.4404 18.3215V58.7415Z" fill="white"/>
<path d="M59.8201 43.7155C61.7225 43.7155 63.2647 42.1895 63.2647 40.3071C63.2647 38.4247 61.7225 36.8987 59.8201 36.8987C57.9177 36.8987 56.3755 38.4247 56.3755 40.3071C56.3755 42.1895 57.9177 43.7155 59.8201 43.7155Z" fill="white"/>
<path d="M59.8226 44.3094C57.5883 44.3094 55.778 42.508 55.778 40.3074C55.778 38.1067 57.5986 36.295 59.8226 36.295C62.0466 36.295 63.8775 38.0965 63.8775 40.3074C63.8775 42.5182 62.0569 44.3094 59.8226 44.3094ZM59.8226 37.4926C58.2606 37.4926 56.9883 38.7516 56.9883 40.2971C56.9883 41.8427 58.2606 43.1017 59.8226 43.1017C61.3846 43.1017 62.6569 41.8427 62.6569 40.2971C62.6569 38.7516 61.3846 37.4926 59.8226 37.4926Z" fill="white"/>
<path d="M27.8817 25.2817C29.7841 25.2817 31.3264 23.7557 31.3264 21.8733C31.3264 19.9908 29.7841 18.4648 27.8817 18.4648C25.9793 18.4648 24.4371 19.9908 24.4371 21.8733C24.4371 23.7557 25.9793 25.2817 27.8817 25.2817Z" fill="white"/>
<path d="M27.8882 25.8753C27.6606 25.8753 27.4227 25.8548 27.1848 25.8139C26.1194 25.6296 25.1884 25.0462 24.5677 24.166C23.9471 23.2857 23.7092 22.2315 23.8954 21.1772C24.0816 20.1229 24.6712 19.2017 25.5608 18.5876C26.4504 17.9735 27.5158 17.7381 28.5813 17.9223C29.6467 18.1065 30.5777 18.69 31.1984 19.5702C31.819 20.4505 32.0569 21.5047 31.8707 22.559C31.6845 23.6133 31.0949 24.5344 30.2053 25.1486C29.5123 25.6296 28.7158 25.8753 27.8882 25.8753ZM27.8779 19.0585C27.2986 19.0585 26.74 19.2325 26.2538 19.5702C25.6332 20.0001 25.2194 20.645 25.0849 21.3819C24.9505 22.1189 25.1263 22.8661 25.5608 23.4802C25.9952 24.0943 26.6469 24.5037 27.3917 24.6266C28.1468 24.7596 28.8916 24.5856 29.5123 24.1557C30.1329 23.7258 30.5467 23.081 30.6811 22.344C30.8156 21.6071 30.6398 20.8599 30.2053 20.2458C29.7709 19.6316 29.1192 19.2222 28.3744 19.0994C28.2089 19.0687 28.0434 19.0585 27.8779 19.0585Z" fill="white"/>
<path d="M27.8781 62.1499C29.7805 62.1499 31.3227 60.6238 31.3227 58.7414C31.3227 56.859 29.7805 55.333 27.8781 55.333C25.9757 55.333 24.4335 56.859 24.4335 58.7414C24.4335 60.6238 25.9757 62.1499 27.8781 62.1499Z" fill="#E5E144"/>
<path d="M27.877 62.7429C25.6426 62.7429 23.822 60.9415 23.822 58.7408C23.822 56.5402 25.6426 54.7285 27.877 54.7285C30.1113 54.7285 31.9215 56.53 31.9215 58.7408C31.9215 60.9517 30.101 62.7429 27.877 62.7429ZM27.877 55.9261C26.315 55.9261 25.0426 57.185 25.0426 58.7306C25.0426 60.2762 26.315 61.5351 27.877 61.5351C29.4389 61.5351 30.7113 60.2762 30.7113 58.7306C30.7113 57.185 29.4389 55.9261 27.877 55.9261Z" fill="white"/>
<path d="M91.7649 25.2817C93.6673 25.2817 95.2095 23.7557 95.2095 21.8733C95.2095 19.9908 93.6673 18.4648 91.7649 18.4648C89.8625 18.4648 88.3203 19.9908 88.3203 21.8733C88.3203 23.7557 89.8625 25.2817 91.7649 25.2817Z" fill="white"/>
<path d="M91.7653 25.8758C89.5309 25.8758 87.7207 24.0744 87.7207 21.8635C87.7207 19.6527 89.5413 17.8615 91.7653 17.8615C93.9893 17.8615 95.8202 19.6629 95.8202 21.8635C95.8202 24.0642 93.9996 25.8758 91.7653 25.8758ZM91.7653 19.059C90.2033 19.059 88.931 20.318 88.931 21.8635C88.931 23.4091 90.2033 24.6681 91.7653 24.6681C93.3273 24.6681 94.5996 23.4091 94.5996 21.8635C94.5996 20.318 93.3273 19.059 91.7653 19.059Z" fill="white"/>
<path d="M91.7649 62.1501C93.6673 62.1501 95.2095 60.6241 95.2095 58.7417C95.2095 56.8593 93.6673 55.3333 91.7649 55.3333C89.8625 55.3333 88.3203 56.8593 88.3203 58.7417C88.3203 60.6241 89.8625 62.1501 91.7649 62.1501Z" fill="#DE6A6F"/>
<path d="M91.7653 62.7441C89.5309 62.7441 87.7207 60.9427 87.7207 58.7421C87.7207 56.5414 89.5413 54.7297 91.7653 54.7297C93.9893 54.7297 95.8202 56.5312 95.8202 58.7421C95.8202 60.9529 93.9996 62.7441 91.7653 62.7441ZM91.7653 55.9273C90.2033 55.9273 88.931 57.1863 88.931 58.7318C88.931 60.2774 90.2033 61.5363 91.7653 61.5363C93.3273 61.5363 94.5996 60.2774 94.5996 58.7318C94.5996 57.1863 93.3273 55.9273 91.7653 55.9273Z" fill="white"/>
<path d="M59.8246 8.0144C57.5903 8.0144 55.78 6.21295 55.78 4.01232C55.78 1.81168 57.6006 0 59.8246 0C62.0486 0 63.8795 1.80145 63.8795 4.01232C63.8795 6.22319 62.059 8.0144 59.8246 8.0144ZM59.8246 1.19755C58.2626 1.19755 56.9903 2.45652 56.9903 4.00208C56.9903 5.54764 58.2626 6.80661 59.8246 6.80661C61.3866 6.80661 62.6589 5.54764 62.6589 4.00208C62.6589 2.45652 61.3866 1.19755 59.8246 1.19755Z" fill="white"/>
<path d="M35.1049 18.7413C35.8247 18.7413 36.4083 18.1639 36.4083 17.4517C36.4083 16.7394 35.8247 16.162 35.1049 16.162C34.3851 16.162 33.8015 16.7394 33.8015 17.4517C33.8015 18.1639 34.3851 18.7413 35.1049 18.7413Z" fill="white"/>
<path d="M39.4704 16.2234C40.1902 16.2234 40.7737 15.646 40.7737 14.9337C40.7737 14.2214 40.1902 13.644 39.4704 13.644C38.7505 13.644 38.167 14.2214 38.167 14.9337C38.167 15.646 38.7505 16.2234 39.4704 16.2234Z" fill="white"/>
<path d="M43.8461 13.7157C44.5659 13.7157 45.1495 13.1383 45.1495 12.426C45.1495 11.7138 44.5659 11.1364 43.8461 11.1364C43.1263 11.1364 42.5427 11.7138 42.5427 12.426C42.5427 13.1383 43.1263 13.7157 43.8461 13.7157Z" fill="white"/>
<path d="M48.2104 11.1981C48.9302 11.1981 49.5137 10.6207 49.5137 9.90845C49.5137 9.19618 48.9302 8.61877 48.2104 8.61877C47.4905 8.61877 46.907 9.19618 46.907 9.90845C46.907 10.6207 47.4905 11.1981 48.2104 11.1981Z" fill="white"/>
<path d="M52.5758 8.69006C53.2957 8.69006 53.8792 8.11266 53.8792 7.40039C53.8792 6.68812 53.2957 6.11072 52.5758 6.11072C51.856 6.11072 51.2725 6.68812 51.2725 7.40039C51.2725 8.11266 51.856 8.69006 52.5758 8.69006Z" fill="white"/>
<path d="M85.3219 18.7412C86.0417 18.7412 86.6253 18.1638 86.6253 17.4515C86.6253 16.7393 86.0417 16.1619 85.3219 16.1619C84.6021 16.1619 84.0186 16.7393 84.0186 17.4515C84.0186 18.1638 84.6021 18.7412 85.3219 18.7412Z" fill="white"/>
<path d="M80.9462 16.2235C81.666 16.2235 82.2495 15.6461 82.2495 14.9338C82.2495 14.2216 81.666 13.6442 80.9462 13.6442C80.2263 13.6442 79.6428 14.2216 79.6428 14.9338C79.6428 15.6461 80.2263 16.2235 80.9462 16.2235Z" fill="white"/>
<path d="M76.5807 13.7159C77.3005 13.7159 77.8841 13.1385 77.8841 12.4263C77.8841 11.714 77.3005 11.1366 76.5807 11.1366C75.8609 11.1366 75.2773 11.714 75.2773 12.4263C75.2773 13.1385 75.8609 13.7159 76.5807 13.7159Z" fill="white"/>
<path d="M72.2057 11.1989C72.9255 11.1989 73.5091 10.6214 73.5091 9.90918C73.5091 9.19691 72.9255 8.61951 72.2057 8.61951C71.4859 8.61951 70.9023 9.19691 70.9023 9.90918C70.9023 10.6214 71.4859 11.1989 72.2057 11.1989Z" fill="white"/>
<path d="M67.8405 8.69019C68.5603 8.69019 69.1438 8.11278 69.1438 7.40051C69.1438 6.68825 68.5603 6.11084 67.8405 6.11084C67.1206 6.11084 66.5371 6.68825 66.5371 7.40051C66.5371 8.11278 67.1206 8.69019 67.8405 8.69019Z" fill="white"/>
</svg>
