<svg width="142" height="130" viewBox="0 0 142 130" fill="none" xmlns="http://www.w3.org/2000/svg">
<path d="M16.2836 127.914V116.87L10.8191 123.221C10.8191 123.221 10.7579 123.281 10.7335 123.305C10.709 123.329 10.6846 123.366 10.6479 123.39C10.6479 123.39 10.6235 123.39 10.6235 123.414C10.5746 123.45 10.5257 123.475 10.489 123.511C10.4523 123.535 10.4156 123.559 10.379 123.583C10.3301 123.608 10.2812 123.62 10.2323 123.644C10.1834 123.668 10.1467 123.68 10.0978 123.692C10.0489 123.704 10 123.717 9.9511 123.717C9.9022 123.717 9.8533 123.741 9.8044 123.741C9.7555 123.741 9.7066 123.741 9.6577 123.741C9.6088 123.741 9.5599 123.741 9.511 123.741C9.4621 123.741 9.4132 123.729 9.3643 123.717C9.3154 123.717 9.2665 123.704 9.22983 123.692C9.18093 123.68 9.14425 123.656 9.09536 123.644C9.04646 123.62 8.99756 123.608 8.96088 123.583C8.92421 123.559 8.88753 123.535 8.85086 123.511C8.80196 123.475 8.75306 123.45 8.71638 123.414C8.71638 123.414 8.69193 123.414 8.69193 123.39C8.65526 123.366 8.63081 123.329 8.60636 123.305C8.58191 123.281 8.54523 123.257 8.52078 123.221L3.05624 116.87V127.914C3.05624 128.749 2.37164 129.426 1.52812 129.426C0.684597 129.426 0 128.749 0 127.914V112.781C0 112.152 0.403423 111.584 1.00245 111.366C1.60147 111.148 2.27384 111.318 2.68949 111.801L9.68215 119.918L16.6748 111.801C17.0905 111.318 17.7628 111.148 18.3619 111.366C18.9609 111.584 19.3643 112.152 19.3643 112.781V127.914C19.3643 128.749 18.6797 129.426 17.8362 129.426C16.9927 129.426 16.3081 128.749 16.3081 127.914H16.2836Z" fill="#2BB6A8"/>
<path d="M28.0679 127.915V123.669L21.7721 113.581C21.332 112.879 21.552 111.948 22.2733 111.512C22.9946 111.077 23.9237 111.294 24.3638 112.008L29.5838 120.379L34.8039 112.008C35.244 111.306 36.1853 111.077 36.8943 111.512C37.6034 111.948 37.8357 112.879 37.3956 113.581L31.0997 123.669V127.915C31.0997 128.75 30.4151 129.427 29.5716 129.427C28.7281 129.427 28.0557 128.75 28.0557 127.915H28.0679Z" fill="#2BB6A8"/>
<path d="M49.2417 116.073C46.8578 118.431 46.8578 122.278 49.2417 124.637C51.6256 126.996 55.5131 126.996 57.897 124.637C58.496 124.044 59.4617 124.044 60.0485 124.637C60.6476 125.23 60.6476 126.173 60.0485 126.766C58.3126 128.484 56.0143 129.427 53.5693 129.427C51.1243 129.427 48.8138 128.484 47.0901 126.766C45.3542 125.048 44.4006 122.774 44.4006 120.355C44.4006 117.935 45.3542 115.649 47.0901 113.944C50.6598 110.411 56.4789 110.411 60.0485 113.944C60.6476 114.536 60.6476 115.48 60.0485 116.073C59.4495 116.665 58.496 116.665 57.897 116.073C55.5131 113.714 51.6256 113.714 49.2417 116.073Z" fill="#2BB6A8"/>
<path d="M75.6318 123.693L78.4313 126.947C78.9814 127.576 78.8958 128.531 78.2601 129.063C77.9789 129.305 77.6244 129.426 77.2699 129.426C76.842 129.426 76.4142 129.245 76.1085 128.894L72.5022 124.709C72.331 124.721 72.1599 124.733 71.9887 124.733H65.7418V127.914C65.7418 128.749 65.0572 129.426 64.2137 129.426C63.3701 129.426 62.6855 128.749 62.6855 127.914V112.782C62.6855 111.947 63.3701 111.27 64.2137 111.27H71.9765C75.7296 111.27 78.7736 114.294 78.7736 117.995C78.7736 120.378 77.5022 122.483 75.6073 123.681L75.6318 123.693ZM75.754 118.007C75.754 115.951 74.067 114.282 72.001 114.282H65.7662V121.721H72.001C74.067 121.721 75.754 120.052 75.754 118.007Z" fill="#2BB6A8"/>
<path d="M89.7908 111.281C94.8397 111.281 98.9595 115.346 98.9595 120.354C98.9595 125.362 94.8519 129.426 89.7908 129.426C84.7297 129.426 80.6221 125.362 80.6221 120.354C80.6221 115.346 84.7297 111.281 89.7908 111.281ZM83.6661 120.354C83.6661 123.692 86.4167 126.414 89.7908 126.414C93.1649 126.414 95.9155 123.692 95.9155 120.354C95.9155 117.015 93.1649 114.293 89.7908 114.293C86.4167 114.293 83.6661 117.015 83.6661 120.354Z" fill="#2BB6A8"/>
<path d="M141.417 120.354C141.417 125.349 137.309 129.426 132.248 129.426H126.845C126.001 129.426 125.316 128.749 125.316 127.914V112.781C125.316 111.947 126.001 111.281 126.845 111.281H132.248C137.297 111.281 141.417 115.346 141.417 120.354ZM138.373 120.354C138.373 117.015 135.622 114.293 132.248 114.293H128.373V126.414H132.248C135.622 126.414 138.373 123.692 138.373 120.354Z" fill="#2BB6A8"/>
<path d="M118.227 129.499C117.677 129.499 117.164 129.209 116.895 128.725L111.552 119.217L106.491 128.689C106.198 129.245 105.599 129.56 104.963 129.475C104.34 129.403 103.826 128.943 103.667 128.338L99.8653 113.096C99.6697 112.286 100.159 111.476 100.978 111.27C101.785 111.076 102.616 111.56 102.824 112.371L105.672 123.778L110.183 115.334C110.44 114.85 110.953 114.536 111.516 114.536H111.528C112.078 114.536 112.591 114.826 112.86 115.31L117.628 123.79L120.232 112.395C120.415 111.584 121.222 111.064 122.054 111.258C122.873 111.439 123.386 112.25 123.203 113.06L119.719 128.302C119.584 128.907 119.071 129.366 118.447 129.463C118.374 129.463 118.3 129.475 118.227 129.475V129.499Z" fill="#2BB6A8"/>
<path d="M35.1849 26.0737H30.8818V70.6977H35.1849V26.0737Z" fill="#2BB6A8"/>
<path d="M72.8501 48.501H68.5469V91.3952H72.8501V48.501Z" fill="#9F9E9F"/>
<path d="M70.6957 95.4239C72.944 95.4239 74.7666 93.6205 74.7666 91.3958C74.7666 89.1711 72.944 87.3677 70.6957 87.3677C68.4474 87.3677 66.6248 89.1711 66.6248 91.3958C66.6248 93.6205 68.4474 95.4239 70.6957 95.4239Z" fill="#9F9E9F"/>
<path d="M70.6987 96.1371C68.0581 96.1371 65.9187 94.0081 65.9187 91.4074C65.9187 88.8066 68.0703 86.6655 70.6987 86.6655C73.327 86.6655 75.4909 88.7945 75.4909 91.4074C75.4909 94.0202 73.3393 96.1371 70.6987 96.1371ZM70.6987 88.0808C68.8527 88.0808 67.349 89.5687 67.349 91.3953C67.349 93.2218 68.8527 94.7097 70.6987 94.7097C72.5447 94.7097 74.0483 93.2218 74.0483 91.3953C74.0483 89.5687 72.5447 88.0808 70.6987 88.0808Z" fill="#9F9E9F"/>
<path d="M110.429 70.2871H106.114V30.03L70.7105 50.9811L31.8718 28.5542L34.0356 24.8769L70.686 46.0216L110.429 22.5181V70.2871Z" fill="#2BB6A8"/>
<path d="M70.6957 52.5289C72.944 52.5289 74.7666 50.7255 74.7666 48.5008C74.7666 46.2761 72.944 44.4727 70.6957 44.4727C68.4474 44.4727 66.6248 46.2761 66.6248 48.5008C66.6248 50.7255 68.4474 52.5289 70.6957 52.5289Z" fill="#2BB6A8"/>
<path d="M70.6987 53.2308C68.0581 53.2308 65.9187 51.1019 65.9187 48.5011C65.9187 45.9004 68.0703 43.7593 70.6987 43.7593C73.327 43.7593 75.4909 45.8883 75.4909 48.5011C75.4909 51.114 73.3393 53.2308 70.6987 53.2308ZM70.6987 45.1746C68.8527 45.1746 67.349 46.6624 67.349 48.489C67.349 50.3156 68.8527 51.8035 70.6987 51.8035C72.5447 51.8035 74.0483 50.3156 74.0483 48.489C74.0483 46.6624 72.5447 45.1746 70.6987 45.1746Z" fill="#2BB6A8"/>
<path d="M32.9509 30.7438C35.1992 30.7438 37.0218 28.9403 37.0218 26.7156C37.0218 24.491 35.1992 22.6875 32.9509 22.6875C30.7026 22.6875 28.88 24.491 28.88 26.7156C28.88 28.9403 30.7026 30.7438 32.9509 30.7438Z" fill="#2BB6A8"/>
<path d="M32.9589 31.4453C32.69 31.4453 32.4088 31.4211 32.1276 31.3727C30.8685 31.155 29.7682 30.4655 29.0347 29.4252C28.3012 28.3849 28.02 27.139 28.2401 25.893C28.4601 24.6471 29.157 23.5584 30.2083 22.8326C31.2596 22.1068 32.5188 21.8286 33.778 22.0463C35.0372 22.2641 36.1374 22.9536 36.8709 23.9939C37.6044 25.0342 37.8856 26.2801 37.6655 27.5261C37.4455 28.772 36.7486 29.8607 35.6973 30.5865C34.8782 31.155 33.9369 31.4453 32.9589 31.4453ZM32.9467 23.389C32.2621 23.389 31.6019 23.5947 31.0274 23.9939C30.2939 24.5019 29.8049 25.264 29.646 26.135C29.487 27.0059 29.6949 27.8889 30.2083 28.6147C30.7217 29.3405 31.4919 29.8244 32.3721 29.9695C33.2645 30.1268 34.1447 29.9212 34.8782 29.4131C35.6117 28.9051 36.1007 28.143 36.2597 27.272C36.4186 26.4011 36.2107 25.518 35.6973 24.7922C35.1839 24.0665 34.4137 23.5826 33.5335 23.4374C33.3379 23.4011 33.1423 23.389 32.9467 23.389Z" fill="#2BB6A8"/>
<path d="M32.9467 74.3151C35.195 74.3151 37.0177 72.5116 37.0177 70.2869C37.0177 68.0622 35.195 66.2588 32.9467 66.2588C30.6984 66.2588 28.8758 68.0622 28.8758 70.2869C28.8758 72.5116 30.6984 74.3151 32.9467 74.3151Z" fill="#E5E144"/>
<path d="M32.9453 75.016C30.3047 75.016 28.1531 72.887 28.1531 70.2863C28.1531 67.6855 30.3047 65.5444 32.9453 65.5444C35.5859 65.5444 37.7252 67.6734 37.7252 70.2863C37.7252 72.8991 35.5736 75.016 32.9453 75.016ZM32.9453 66.9597C31.0993 66.9597 29.5956 68.4476 29.5956 70.2742C29.5956 72.1007 31.0993 73.5886 32.9453 73.5886C34.7912 73.5886 36.2949 72.1007 36.2949 70.2742C36.2949 68.4476 34.7912 66.9597 32.9453 66.9597Z" fill="#2BB6A8"/>
<path d="M108.449 30.7438C110.697 30.7438 112.52 28.9403 112.52 26.7156C112.52 24.491 110.697 22.6875 108.449 22.6875C106.201 22.6875 104.378 24.491 104.378 26.7156C104.378 28.9403 106.201 30.7438 108.449 30.7438Z" fill="#2BB6A8"/>
<path d="M108.45 31.4457C105.809 31.4457 103.67 29.3167 103.67 26.7039C103.67 24.091 105.822 21.9741 108.45 21.9741C111.078 21.9741 113.242 24.1031 113.242 26.7039C113.242 29.3046 111.09 31.4457 108.45 31.4457ZM108.45 23.3894C106.604 23.3894 105.1 24.8773 105.1 26.7039C105.1 28.5304 106.604 30.0183 108.45 30.0183C110.296 30.0183 111.8 28.5304 111.8 26.7039C111.8 24.8773 110.296 23.3894 108.45 23.3894Z" fill="#2BB6A8"/>
<path d="M108.449 74.3151C110.697 74.3151 112.52 72.5116 112.52 70.2869C112.52 68.0622 110.697 66.2588 108.449 66.2588C106.201 66.2588 104.378 68.0622 104.378 70.2869C104.378 72.5116 106.201 74.3151 108.449 74.3151Z" fill="#DE6A6F"/>
<path d="M108.45 75.0175C105.809 75.0175 103.67 72.8885 103.67 70.2877C103.67 67.687 105.822 65.5459 108.45 65.5459C111.078 65.5459 113.242 67.6749 113.242 70.2877C113.242 72.9006 111.09 75.0175 108.45 75.0175ZM108.45 66.9612C106.604 66.9612 105.1 68.4491 105.1 70.2756C105.1 72.1022 106.604 73.5901 108.45 73.5901C110.296 73.5901 111.8 72.1022 111.8 70.2756C111.8 68.4491 110.296 66.9612 108.45 66.9612Z" fill="#2BB6A8"/>
<path d="M70.7018 10.3368C68.0613 10.3368 65.9219 8.20781 65.9219 5.60706C65.9219 3.00632 68.0735 0.865234 70.7018 0.865234C73.3302 0.865234 75.494 2.99422 75.494 5.60706C75.494 8.21991 73.3424 10.3368 70.7018 10.3368ZM70.7018 2.28053C68.8559 2.28053 67.3522 3.7684 67.3522 5.59497C67.3522 7.42154 68.8559 8.90941 70.7018 8.90941C72.5478 8.90941 74.0515 7.42154 74.0515 5.59497C74.0515 3.7684 72.5478 2.28053 70.7018 2.28053Z" fill="#9F9E9F"/>
<path d="M41.4876 23.0141C42.3383 23.0141 43.028 22.3317 43.028 21.49C43.028 20.6482 42.3383 19.9658 41.4876 19.9658C40.6369 19.9658 39.9473 20.6482 39.9473 21.49C39.9473 22.3317 40.6369 23.0141 41.4876 23.0141Z" fill="#9F9E9F"/>
<path d="M46.6468 20.0381C47.4975 20.0381 48.1872 19.3557 48.1872 18.5139C48.1872 17.6721 47.4975 16.9897 46.6468 16.9897C45.7961 16.9897 45.1065 17.6721 45.1065 18.5139C45.1065 19.3557 45.7961 20.0381 46.6468 20.0381Z" fill="#9F9E9F"/>
<path d="M51.8178 17.0747C52.6685 17.0747 53.3582 16.3923 53.3582 15.5505C53.3582 14.7088 52.6685 14.0264 51.8178 14.0264C50.9671 14.0264 50.2775 14.7088 50.2775 15.5505C50.2775 16.3923 50.9671 17.0747 51.8178 17.0747Z" fill="#9F9E9F"/>
<path d="M56.9759 14.0991C57.8266 14.0991 58.5163 13.4167 58.5163 12.5749C58.5163 11.7332 57.8266 11.0508 56.9759 11.0508C56.1252 11.0508 55.4356 11.7332 55.4356 12.5749C55.4356 13.4167 56.1252 14.0991 56.9759 14.0991Z" fill="#9F9E9F"/>
<path d="M62.1351 11.1352C62.9858 11.1352 63.6754 10.4528 63.6754 9.61107C63.6754 8.7693 62.9858 8.08691 62.1351 8.08691C61.2844 8.08691 60.5948 8.7693 60.5948 9.61107C60.5948 10.4528 61.2844 11.1352 62.1351 11.1352Z" fill="#9F9E9F"/>
<path d="M100.836 23.0136C101.686 23.0136 102.376 22.3313 102.376 21.4895C102.376 20.6477 101.686 19.9653 100.836 19.9653C99.9848 19.9653 99.2952 20.6477 99.2952 21.4895C99.2952 22.3313 99.9848 23.0136 100.836 23.0136Z" fill="#9F9E9F"/>
<path d="M95.6634 20.0381C96.5141 20.0381 97.2038 19.3557 97.2038 18.5139C97.2038 17.6721 96.5141 16.9897 95.6634 16.9897C94.8127 16.9897 94.1231 17.6721 94.1231 18.5139C94.1231 19.3557 94.8127 20.0381 95.6634 20.0381Z" fill="#9F9E9F"/>
<path d="M90.5042 17.0747C91.355 17.0747 92.0446 16.3923 92.0446 15.5505C92.0446 14.7088 91.355 14.0264 90.5042 14.0264C89.6535 14.0264 88.9639 14.7088 88.9639 15.5505C88.9639 16.3923 89.6535 17.0747 90.5042 17.0747Z" fill="#9F9E9F"/>
<path d="M85.3343 14.1001C86.185 14.1001 86.8747 13.4177 86.8747 12.5759C86.8747 11.7341 86.185 11.0518 85.3343 11.0518C84.4836 11.0518 83.794 11.7341 83.794 12.5759C83.794 13.4177 84.4836 14.1001 85.3343 14.1001Z" fill="#9F9E9F"/>
<path d="M80.1751 11.1352C81.0258 11.1352 81.7155 10.4528 81.7155 9.61107C81.7155 8.7693 81.0258 8.08691 80.1751 8.08691C79.3244 8.08691 78.6348 8.7693 78.6348 9.61107C78.6348 10.4528 79.3244 11.1352 80.1751 11.1352Z" fill="#9F9E9F"/>
</svg>
