<svg width="68" height="20" viewBox="0 0 68 20" fill="none" xmlns="http://www.w3.org/2000/svg">
<g clip-path="url(#clip0_493_1151)">
<path d="M12.7992 0H3.36743C1.50928 0 0 1.52288 0 3.40335V12.9357C0 14.8162 1.50928 16.3391 3.36743 16.3391H9.04827C9.5258 16.3391 9.95879 16.5366 10.2705 16.8542L13.0887 19.6974C13.2718 19.8825 13.5266 19.9975 13.8062 19.9975C14.3679 19.9975 14.8207 19.5374 14.8207 18.9722V16.1515C14.8207 15.834 14.6945 15.5464 14.4891 15.3388L14.4817 15.3313L11.7328 12.5531C11.5299 12.3706 11.2627 12.2556 10.9683 12.2556H5.05238C4.49321 12.2556 4.0429 11.7979 4.0429 11.2353V5.10628C4.0429 4.54113 4.49568 4.08602 5.05238 4.08602H11.1143C11.6734 4.08602 12.1237 4.54364 12.1237 5.10628V11.2253C12.1609 11.4829 12.2771 11.7129 12.4528 11.8855H12.4503L15.4986 14.9687C15.9167 14.4011 16.1666 13.6959 16.1666 12.9332V3.40335C16.1666 1.52288 14.6574 0 12.7992 0Z" fill="#E41B23"/>
<path d="M62.0618 0H53.9785C51.957 0 51.957 2.04301 51.957 2.04301V14.2986C51.957 16.3416 53.9785 16.3416 53.9785 16.3416H62.0618C65.4094 16.3416 68.1237 13.5984 68.1237 10.2151V6.12653C68.1237 2.74319 65.4094 0 62.0618 0ZM64.0833 10.2126C64.0833 11.3403 63.1777 12.2556 62.0618 12.2556H55.9999V4.08602H62.0618C63.1777 4.08602 64.0833 5.00125 64.0833 6.12903V10.2151V10.2126Z" fill="#E41B23"/>
<path d="M46.8594 0H41.9481C40.3274 0 38.8652 0.687672 37.8285 1.78545L37.8507 1.75294L34.993 4.64116L37.8507 7.52938L40.6021 4.74869C41.0301 4.33858 41.6091 4.08352 42.2474 4.08352H45.1794C45.7386 4.08352 46.1889 4.54113 46.1889 5.10378V11.2303C46.1889 11.7954 45.7361 12.2506 45.1794 12.2506H42.1311C41.5373 12.2506 40.993 12.0305 40.5749 11.6679L30.4651 1.45786C29.4581 0.550137 28.1319 0 26.6796 0H21.261C19.4004 0 17.8936 1.52288 17.8936 3.40335V12.9357C17.8936 14.8162 19.4028 16.3391 21.261 16.3391H26.7439C26.7439 16.3391 26.7662 16.3391 26.7785 16.3391C26.7909 16.3391 26.8008 16.3391 26.8132 16.3391C28.32 16.3291 29.6882 15.7289 30.7027 14.7512L33.647 11.7754L30.7893 8.88722L28.1715 11.5329C27.7385 11.9755 27.1373 12.2531 26.4692 12.2531H22.9484C22.3892 12.2531 21.9389 11.7954 21.9389 11.2328V5.10628C21.9389 4.54113 22.3917 4.08602 22.9484 4.08602H26.3678C26.974 4.08602 27.5282 4.31608 27.9488 4.69117L38.1328 14.9837C39.1151 15.824 40.3843 16.3316 41.7699 16.3416C41.7823 16.3416 41.7922 16.3416 41.8045 16.3416H46.8619C48.7225 16.3416 50.2293 14.8162 50.2293 12.9357V3.40335C50.2293 1.52288 48.72 0 46.8619 0H46.8594Z" fill="#E41B23"/>
</g>
<defs>
<clipPath id="clip0_493_1151">
<rect width="67.3684" height="20" fill="white"/>
</clipPath>
</defs>
</svg>
