<svg width="120" height="24" viewBox="0 0 120 24" fill="none" xmlns="http://www.w3.org/2000/svg">
<path d="M3.82196 0.379944H0V23.035H3.82196V0.379944Z" fill="white"/>
<path d="M34.6597 23.035H38.4816V13.8522H49.4683V10.1836H38.4816V3.89051H50.0377V0.379944H34.6597V23.035Z" fill="white"/>
<path d="M25.5613 14.9753L9.92962 0.379944H9.09814V23.035H12.9201V8.43958L28.5546 23.035H29.3861V0.379944H25.5613V14.9753Z" fill="white"/>
<path d="M57.8142 0.379944H53.9922V23.035H57.8142V0.379944Z" fill="white"/>
<path d="M92.4743 0.379944H88.6523V23.035H92.4743V0.379944Z" fill="white"/>
<path d="M79.5535 14.9753L63.9218 0.379944H63.0903V23.035H66.9123V8.43958L82.5468 23.035H83.3783V0.379944H79.5535V14.9753Z" fill="white"/>
<path d="M107.426 11.7062H106.984L113.517 23.0337H120L116.494 19.8787C118.411 17.7927 119.518 15.0877 119.614 12.2543C119.71 9.42092 118.789 6.64695 117.017 4.43562C115.245 2.22428 112.74 0.722081 109.957 0.201535C107.173 -0.319011 104.296 0.176585 101.846 1.59841C99.3965 3.02024 97.537 5.2741 96.605 7.95112C95.673 10.6281 95.7302 13.551 96.7663 16.1894C97.8024 18.8277 99.7487 21.0069 102.252 22.3315C104.756 23.6561 107.65 24.0384 110.411 23.4091L108.438 19.7743C108.213 19.7913 107.984 19.8025 107.756 19.8025C105.881 19.8156 104.059 19.1797 102.599 18.0023C101.138 16.825 100.128 15.1786 99.7409 13.3418C99.3534 11.5049 99.6115 9.5904 100.472 7.92222C101.332 6.25404 102.741 4.93463 104.462 4.18728C106.182 3.43993 108.107 3.31053 109.911 3.82098C111.716 4.33142 113.289 5.45037 114.364 6.98847C115.439 8.52656 115.95 10.3893 115.812 12.2616C115.673 14.1338 114.892 15.9005 113.602 17.2627L107.426 11.7062Z" fill="white"/>
</svg>
