<svg width="72" height="18" viewBox="0 0 72 18" fill="none" xmlns="http://www.w3.org/2000/svg">
<g clip-path="url(#clip0_2_517)">
<path d="M17.8143 17.8484H14.2401L11.3708 9.05117L8.48642 17.8484H4.92735L0 0H4.59002L6.92104 9.4264L9.80164 0H12.9135L15.7941 9.4264L18.1289 0H22.7151L17.8143 17.8484Z" fill="#63ADE0"/>
<path d="M26.6988 12.436C26.6988 13.5389 27.5516 14.5396 29.079 14.5396C30.508 14.5396 31.1372 14.1378 31.8611 13.4025L34.321 15.8586C32.9413 17.2382 31.5882 17.9887 29.079 17.9887C26.0961 17.9887 22.6621 16.9123 22.6621 11.0942C22.6621 6.68234 25.1675 4.19971 28.7038 4.19971C32.6154 4.19971 34.7682 7.05757 34.7682 10.5939V12.4246L26.6988 12.436ZM30.489 8.64569C30.3139 8.32631 30.0562 8.05987 29.7428 7.87428C29.4294 7.68869 29.0718 7.59076 28.7076 7.59076C28.3434 7.59076 27.9858 7.68869 27.6724 7.87428C27.359 8.05987 27.1013 8.32631 26.9262 8.64569C26.7714 8.97501 26.6949 9.33562 26.7025 9.69939H30.7013C30.7107 9.33749 30.6368 8.97826 30.4852 8.64948L30.489 8.64569Z" fill="#63ADE0"/>
<path d="M37.5239 17.8484V0H41.9093V17.8484H37.5239Z" fill="#63ADE0"/>
<path d="M45.5249 17.8484V0H49.9102V17.8484H45.5249Z" fill="#63ADE0"/>
<path d="M53.2686 18V6.29565H57.381V18H53.2686Z" fill="#63ADE0"/>
<path d="M67.6603 17.8484V16.7454C67.2648 17.1682 66.7818 17.4995 66.2449 17.7162C65.7081 17.9329 65.1304 18.0298 64.5523 18C63.3387 18.0345 62.1596 17.5939 61.2661 16.772C59.9357 15.4416 60.0115 13.0878 60.0115 11.0865C60.0115 9.08528 59.9357 6.75048 61.2661 5.42009C62.1493 4.5987 63.3201 4.1576 64.5258 4.19204C65.0791 4.15954 65.6331 4.24401 66.1516 4.43993C66.6702 4.63585 67.1416 4.93883 67.5352 5.32912V0H71.6363V17.8484H67.6603ZM65.8296 7.92167C64.3135 7.92167 64.124 9.14972 64.124 11.1055C64.124 13.0613 64.2983 14.2893 65.8296 14.2893C67.3609 14.2893 67.5352 13.0613 67.5352 11.1055C67.5352 9.14972 67.3571 7.92167 65.8296 7.92167Z" fill="#63ADE0"/>
<path d="M55.3381 5.01441C54.8417 5.01516 54.3562 4.86864 53.9431 4.59338C53.53 4.31813 53.2078 3.92652 53.0173 3.46809C52.8268 3.00967 52.7766 2.50505 52.8729 2.01807C52.9693 1.53109 53.208 1.08364 53.5588 0.73235C53.9095 0.381059 54.3566 0.14171 54.8434 0.0445858C55.3303 -0.0525382 55.835 -0.00307078 56.2937 0.18673C56.7524 0.37653 57.1445 0.698134 57.4204 1.11085C57.6963 1.52356 57.8435 2.00883 57.8435 2.50525C57.8415 3.16945 57.577 3.80594 57.1077 4.27596C56.6384 4.74597 56.0023 5.01141 55.3381 5.01441Z" fill="#63ADE0"/>
</g>
<defs>
<clipPath id="clip0_2_517">
<rect width="71.6437" height="18" fill="white"/>
</clipPath>
</defs>
</svg>
