<svg width="133" height="133" viewBox="0 0 133 133" fill="none" xmlns="http://www.w3.org/2000/svg">
<path d="M20.7787 119.503V110.158L16.1548 115.532C16.1548 115.532 16.1031 115.583 16.0824 115.603C16.0617 115.624 16.041 115.654 16.01 115.675C16.01 115.675 15.9893 115.675 15.9893 115.695C15.9479 115.726 15.9066 115.746 15.8755 115.777C15.8445 115.798 15.8135 115.818 15.7824 115.839C15.7411 115.859 15.6997 115.869 15.6583 115.89C15.6169 115.91 15.5859 115.92 15.5445 115.931C15.5031 115.941 15.4618 115.951 15.4204 115.951C15.379 115.951 15.3376 115.972 15.2963 115.972C15.2549 115.972 15.2135 115.972 15.1721 115.972C15.1308 115.972 15.0894 115.972 15.048 115.972C15.0066 115.972 14.9652 115.961 14.9239 115.951C14.8825 115.951 14.8411 115.941 14.8101 115.931C14.7687 115.92 14.7377 115.9 14.6963 115.89C14.6549 115.869 14.6135 115.859 14.5825 115.839C14.5515 115.818 14.5204 115.798 14.4894 115.777C14.448 115.746 14.4067 115.726 14.3756 115.695C14.3756 115.695 14.3549 115.695 14.3549 115.675C14.3239 115.654 14.3032 115.624 14.2825 115.603C14.2618 115.583 14.2308 115.562 14.2101 115.532L9.58627 110.158V119.503C9.58627 120.209 9.007 120.782 8.29325 120.782C7.5795 120.782 7.00023 120.209 7.00023 119.503V106.698C7.00023 106.166 7.34159 105.685 7.84845 105.501C8.35532 105.316 8.92425 105.46 9.27595 105.869L15.1928 112.737L21.1097 105.869C21.4614 105.46 22.0303 105.316 22.5372 105.501C23.0441 105.685 23.3854 106.166 23.3854 106.698V119.503C23.3854 120.209 22.8061 120.782 22.0924 120.782C21.3786 120.782 20.7994 120.209 20.7994 119.503H20.7787Z" fill="white"/>
<path d="M30.7504 119.504V115.911L25.4231 107.375C25.0507 106.781 25.2369 105.993 25.8472 105.624C26.4575 105.256 27.2437 105.44 27.6161 106.044L32.033 113.127L36.45 106.044C36.8224 105.45 37.6189 105.256 38.2189 105.624C38.8188 105.993 39.0154 106.781 38.643 107.375L33.3157 115.911V119.504C33.3157 120.21 32.7364 120.783 32.0227 120.783C31.3089 120.783 30.74 120.21 30.74 119.504H30.7504Z" fill="white"/>
<path d="M48.6659 109.483C46.6487 111.479 46.6487 114.734 48.6659 116.73C50.683 118.726 53.9724 118.726 55.9895 116.73C56.4964 116.229 57.3136 116.229 57.8101 116.73C58.317 117.232 58.317 118.03 57.8101 118.532C56.3412 119.985 54.3965 120.783 52.3277 120.783C50.2589 120.783 48.3038 119.985 46.8453 118.532C45.3764 117.078 44.5696 115.154 44.5696 113.107C44.5696 111.06 45.3764 109.125 46.8453 107.682C49.8658 104.693 54.7896 104.693 57.8101 107.682C58.317 108.184 58.317 108.982 57.8101 109.483C57.3033 109.985 56.4964 109.985 55.9895 109.483C53.9724 107.488 50.683 107.488 48.6659 109.483Z" fill="white"/>
<path d="M70.9966 115.931L73.3654 118.684C73.8309 119.216 73.7585 120.025 73.2206 120.475C72.9827 120.68 72.6827 120.782 72.3827 120.782C72.0206 120.782 71.6586 120.629 71.4 120.332L68.3485 116.791C68.2036 116.801 68.0588 116.811 67.914 116.811H62.6281V119.503C62.6281 120.209 62.0489 120.782 61.3351 120.782C60.6214 120.782 60.0421 120.209 60.0421 119.503V106.698C60.0421 105.992 60.6214 105.419 61.3351 105.419H67.9037C71.0793 105.419 73.655 107.978 73.655 111.11C73.655 113.126 72.5792 114.907 70.9759 115.921L70.9966 115.931ZM71.1 111.12C71.1 109.38 69.6725 107.968 67.9244 107.968H62.6488V114.262H67.9244C69.6725 114.262 71.1 112.85 71.1 111.12Z" fill="white"/>
<path d="M82.9773 105.429C87.2494 105.429 90.7354 108.868 90.7354 113.106C90.7354 117.343 87.2597 120.783 82.9773 120.783C78.6948 120.783 75.2191 117.343 75.2191 113.106C75.2191 108.868 78.6948 105.429 82.9773 105.429ZM77.7948 113.106C77.7948 115.931 80.1223 118.234 82.9773 118.234C85.8322 118.234 88.1597 115.931 88.1597 113.106C88.1597 110.281 85.8322 107.978 82.9773 107.978C80.1223 107.978 77.7948 110.281 77.7948 113.106Z" fill="white"/>
<path d="M126.661 113.106C126.661 117.333 123.185 120.783 118.903 120.783H114.33C113.617 120.783 113.037 120.209 113.037 119.503V106.699C113.037 105.992 113.617 105.429 114.33 105.429H118.903C123.175 105.429 126.661 108.868 126.661 113.106ZM124.085 113.106C124.085 110.281 121.758 107.978 118.903 107.978H115.623V118.234H118.903C121.758 118.234 124.085 115.931 124.085 113.106Z" fill="white"/>
<path d="M107.038 120.844C106.573 120.844 106.138 120.599 105.911 120.189L101.39 112.144L97.1078 120.159C96.8595 120.629 96.3527 120.896 95.8148 120.824C95.2872 120.762 94.8528 120.374 94.7183 119.862L91.5012 106.965C91.3357 106.279 91.7495 105.593 92.4426 105.419C93.1253 105.256 93.8287 105.665 94.0045 106.351L96.4147 116.003L100.232 108.859C100.449 108.449 100.883 108.183 101.359 108.183H101.37C101.835 108.183 102.27 108.429 102.497 108.838L106.531 116.013L108.735 106.371C108.89 105.686 109.573 105.245 110.276 105.409C110.969 105.563 111.403 106.249 111.248 106.934L108.3 119.831C108.186 120.343 107.752 120.732 107.224 120.814C107.162 120.814 107.1 120.824 107.038 120.824V120.844Z" fill="white"/>
<path d="M36.7719 33.3301H33.1308V71.0889H36.7719V33.3301Z" fill="white"/>
<path d="M68.6419 52.3073H65.0007V88.6023H68.6419V52.3073Z" fill="white"/>
<path d="M66.8204 92.0113C68.7228 92.0113 70.265 90.4853 70.265 88.6029C70.265 86.7205 68.7228 85.1945 66.8204 85.1945C64.918 85.1945 63.3758 86.7205 63.3758 88.6029C63.3758 90.4853 64.918 92.0113 66.8204 92.0113Z" fill="white"/>
<path d="M66.8229 92.6147C64.5886 92.6147 62.7783 90.8133 62.7783 88.6127C62.7783 86.412 64.5989 84.6003 66.8229 84.6003C69.0469 84.6003 70.8778 86.4018 70.8778 88.6127C70.8778 90.8235 69.0572 92.6147 66.8229 92.6147ZM66.8229 85.7979C65.2609 85.7979 63.9886 87.0569 63.9886 88.6024C63.9886 90.148 65.2609 91.407 66.8229 91.407C68.3849 91.407 69.6572 90.148 69.6572 88.6024C69.6572 87.0569 68.3849 85.7979 66.8229 85.7979Z" fill="white"/>
<path d="M100.44 70.7416H96.7889V36.6778L66.8321 54.4057L33.9687 35.4291L35.7996 32.3175L66.8115 50.2092L100.44 30.3216V70.7416Z" fill="white"/>
<path d="M66.8204 55.7154C68.7228 55.7154 70.265 54.1894 70.265 52.307C70.265 50.4245 68.7228 48.8985 66.8204 48.8985C64.918 48.8985 63.3758 50.4245 63.3758 52.307C63.3758 54.1894 64.918 55.7154 66.8204 55.7154Z" fill="white"/>
<path d="M66.8229 56.3093C64.5886 56.3093 62.7783 54.5079 62.7783 52.3072C62.7783 50.1066 64.5989 48.2949 66.8229 48.2949C69.0469 48.2949 70.8778 50.0964 70.8778 52.3072C70.8778 54.5181 69.0572 56.3093 66.8229 56.3093ZM66.8229 49.4925C65.2609 49.4925 63.9886 50.7514 63.9886 52.297C63.9886 53.8426 65.2609 55.1015 66.8229 55.1015C68.3849 55.1015 69.6572 53.8426 69.6572 52.297C69.6572 50.7514 68.3849 49.4925 66.8229 49.4925Z" fill="white"/>
<path d="M34.8821 37.2819C36.7845 37.2819 38.3267 35.7559 38.3267 33.8734C38.3267 31.991 36.7845 30.465 34.8821 30.465C32.9797 30.465 31.4375 31.991 31.4375 33.8734C31.4375 35.7559 32.9797 37.2819 34.8821 37.2819Z" fill="white"/>
<path d="M34.8886 37.8754C34.661 37.8754 34.4231 37.8549 34.1852 37.814C33.1197 37.6298 32.1888 37.0463 31.5681 36.1661C30.9475 35.2858 30.7095 34.2316 30.8957 33.1773C31.0819 32.1231 31.6715 31.2019 32.5611 30.5877C33.4507 29.9736 34.5162 29.7382 35.5817 29.9224C36.6471 30.1067 37.5781 30.6901 38.1987 31.5703C38.8194 32.4506 39.0573 33.5049 38.8711 34.5591C38.6849 35.6134 38.0953 36.5346 37.2057 37.1487C36.5126 37.6298 35.7161 37.8754 34.8886 37.8754ZM34.8782 31.0586C34.299 31.0586 33.7404 31.2326 33.2542 31.5703C32.6336 32.0002 32.2198 32.6451 32.0853 33.382C31.9508 34.119 32.1267 34.8662 32.5611 35.4803C32.9956 36.0944 33.6473 36.5039 34.3921 36.6267C35.1472 36.7597 35.892 36.5857 36.5126 36.1559C37.1333 35.726 37.547 35.0811 37.6815 34.3442C37.816 33.6072 37.6401 32.86 37.2057 32.2459C36.7712 31.6318 36.1196 31.2223 35.3748 31.0995C35.2093 31.0688 35.0438 31.0586 34.8782 31.0586Z" fill="white"/>
<path d="M34.8781 74.1498C36.7805 74.1498 38.3227 72.6238 38.3227 70.7414C38.3227 68.859 36.7805 67.333 34.8781 67.333C32.9757 67.333 31.4335 68.859 31.4335 70.7414C31.4335 72.6238 32.9757 74.1498 34.8781 74.1498Z" fill="#E5E144"/>
<path d="M34.877 74.7429C32.6426 74.7429 30.822 72.9414 30.822 70.7408C30.822 68.5401 32.6426 66.7285 34.877 66.7285C37.1113 66.7285 38.9215 68.5299 38.9215 70.7408C38.9215 72.9516 37.101 74.7429 34.877 74.7429ZM34.877 67.926C33.315 67.926 32.0426 69.185 32.0426 70.7305C32.0426 72.2761 33.315 73.5351 34.877 73.5351C36.4389 73.5351 37.7113 72.2761 37.7113 70.7305C37.7113 69.185 36.4389 67.926 34.877 67.926Z" fill="white"/>
<path d="M98.7649 37.2816C100.667 37.2816 102.21 35.7556 102.21 33.8732C102.21 31.9908 100.667 30.4648 98.7649 30.4648C96.8625 30.4648 95.3203 31.9908 95.3203 33.8732C95.3203 35.7556 96.8625 37.2816 98.7649 37.2816Z" fill="white"/>
<path d="M98.7653 37.8759C96.5309 37.8759 94.7207 36.0744 94.7207 33.8635C94.7207 31.6527 96.5413 29.8615 98.7653 29.8615C100.989 29.8615 102.82 31.6629 102.82 33.8635C102.82 36.0642 101 37.8759 98.7653 37.8759ZM98.7653 31.059C97.2033 31.059 95.931 32.318 95.931 33.8635C95.931 35.4091 97.2033 36.6681 98.7653 36.6681C100.327 36.6681 101.6 35.4091 101.6 33.8635C101.6 32.318 100.327 31.059 98.7653 31.059Z" fill="white"/>
<path d="M98.7649 74.15C100.667 74.15 102.21 72.624 102.21 70.7416C102.21 68.8591 100.667 67.3331 98.7649 67.3331C96.8625 67.3331 95.3203 68.8591 95.3203 70.7416C95.3203 72.624 96.8625 74.15 98.7649 74.15Z" fill="#DE6A6F"/>
<path d="M98.7653 74.7441C96.5309 74.7441 94.7207 72.9426 94.7207 70.742C94.7207 68.5414 96.5413 66.7297 98.7653 66.7297C100.989 66.7297 102.82 68.5311 102.82 70.742C102.82 72.9529 101 74.7441 98.7653 74.7441ZM98.7653 67.9272C97.2033 67.9272 95.931 69.1862 95.931 70.7318C95.931 72.2773 97.2033 73.5363 98.7653 73.5363C100.327 73.5363 101.6 72.2773 101.6 70.7318C101.6 69.1862 100.327 67.9272 98.7653 67.9272Z" fill="white"/>
<path d="M66.8246 20.0144C64.5903 20.0144 62.7801 18.213 62.7801 16.0123C62.7801 13.8117 64.6006 12 66.8246 12C69.0486 12 70.8796 13.8014 70.8796 16.0123C70.8796 18.2232 69.059 20.0144 66.8246 20.0144ZM66.8246 13.1976C65.2627 13.1976 63.9903 14.4565 63.9903 16.0021C63.9903 17.5476 65.2627 18.8066 66.8246 18.8066C68.3866 18.8066 69.6589 17.5476 69.6589 16.0021C69.6589 14.4565 68.3866 13.1976 66.8246 13.1976Z" fill="white"/>
<path d="M42.1049 30.7413C42.8247 30.7413 43.4083 30.1639 43.4083 29.4516C43.4083 28.7394 42.8247 28.162 42.1049 28.162C41.3851 28.162 40.8015 28.7394 40.8015 29.4516C40.8015 30.1639 41.3851 30.7413 42.1049 30.7413Z" fill="white"/>
<path d="M46.4704 28.2234C47.1902 28.2234 47.7737 27.646 47.7737 26.9337C47.7737 26.2214 47.1902 25.644 46.4704 25.644C45.7505 25.644 45.167 26.2214 45.167 26.9337C45.167 27.646 45.7505 28.2234 46.4704 28.2234Z" fill="white"/>
<path d="M50.8461 25.7157C51.5659 25.7157 52.1495 25.1383 52.1495 24.426C52.1495 23.7138 51.5659 23.1364 50.8461 23.1364C50.1263 23.1364 49.5427 23.7138 49.5427 24.426C49.5427 25.1383 50.1263 25.7157 50.8461 25.7157Z" fill="white"/>
<path d="M55.2104 23.1982C55.9302 23.1982 56.5137 22.6208 56.5137 21.9085C56.5137 21.1962 55.9302 20.6188 55.2104 20.6188C54.4906 20.6188 53.907 21.1962 53.907 21.9085C53.907 22.6208 54.4906 23.1982 55.2104 23.1982Z" fill="white"/>
<path d="M59.5758 20.69C60.2957 20.69 60.8792 20.1126 60.8792 19.4004C60.8792 18.6881 60.2957 18.1107 59.5758 18.1107C58.856 18.1107 58.2725 18.6881 58.2725 19.4004C58.2725 20.1126 58.856 20.69 59.5758 20.69Z" fill="white"/>
<path d="M92.3219 30.7412C93.0417 30.7412 93.6253 30.1637 93.6253 29.4515C93.6253 28.7392 93.0417 28.1618 92.3219 28.1618C91.6021 28.1618 91.0186 28.7392 91.0186 29.4515C91.0186 30.1637 91.6021 30.7412 92.3219 30.7412Z" fill="white"/>
<path d="M87.9462 28.2234C88.666 28.2234 89.2495 27.646 89.2495 26.9338C89.2495 26.2215 88.666 25.6441 87.9462 25.6441C87.2263 25.6441 86.6428 26.2215 86.6428 26.9338C86.6428 27.646 87.2263 28.2234 87.9462 28.2234Z" fill="white"/>
<path d="M83.5807 25.7159C84.3005 25.7159 84.8841 25.1385 84.8841 24.4263C84.8841 23.714 84.3005 23.1366 83.5807 23.1366C82.8609 23.1366 82.2773 23.714 82.2773 24.4263C82.2773 25.1385 82.8609 25.7159 83.5807 25.7159Z" fill="white"/>
<path d="M79.2057 23.1988C79.9255 23.1988 80.5091 22.6214 80.5091 21.9091C80.5091 21.1969 79.9255 20.6195 79.2057 20.6195C78.4859 20.6195 77.9023 21.1969 77.9023 21.9091C77.9023 22.6214 78.4859 23.1988 79.2057 23.1988Z" fill="white"/>
<path d="M74.8405 20.6902C75.5603 20.6902 76.1438 20.1127 76.1438 19.4005C76.1438 18.6882 75.5603 18.1108 74.8405 18.1108C74.1206 18.1108 73.5371 18.6882 73.5371 19.4005C73.5371 20.1127 74.1206 20.6902 74.8405 20.6902Z" fill="white"/>
</svg>
